<mxfile host="drawio-plugin" modified="2023-08-06T12:47:21.707Z" agent="5.0 (Windows NT 6.2; Win64; x64) AppleWebKit/537.36 (KHTML, like Gecko) Chrome/87.0.4280.141 Safari/537.36" etag="XO4KRbdEwWSc3vxrUiVn" version="13.7.9" type="embed"><diagram id="lMCECdiOliHJ0kIxP1SO" name="Page-1"><mxGraphModel dx="1265" dy="-17538" grid="0" gridSize="10" guides="1" tooltips="1" connect="1" arrows="1" fold="1" page="0" pageScale="1" pageWidth="850" pageHeight="1100" background="#ffffff" math="0" shadow="0"><root><mxCell id="0"/><mxCell id="1" parent="0"/><mxCell id="261" style="edgeStyle=none;rounded=0;sketch=1;orthogonalLoop=1;jettySize=auto;html=1;fontColor=#050505;entryX=0;entryY=0;entryDx=0;entryDy=0;strokeColor=#000000;" parent="1" source="263" target="289" edge="1"><mxGeometry relative="1" as="geometry"><mxPoint x="257.8829906421163" y="18898.882990642116" as="targetPoint"/></mxGeometry></mxCell><mxCell id="262" style="edgeStyle=none;rounded=0;sketch=1;orthogonalLoop=1;jettySize=auto;html=1;entryX=1;entryY=0;entryDx=0;entryDy=0;fontColor=#050505;strokeColor=#000000;" parent="1" source="263" target="268" edge="1"><mxGeometry relative="1" as="geometry"/></mxCell><mxCell id="263" value="&lt;font style=&quot;font-size: 17px&quot;&gt;47&lt;/font&gt;" style="ellipse;whiteSpace=wrap;html=1;aspect=fixed;fillColor=#dae8fc;strokeColor=#6c8ebf;sketch=1;fontStyle=1;fontColor=#000000;" parent="1" vertex="1"><mxGeometry x="177" y="18814" width="47" height="47" as="geometry"/></mxCell><mxCell id="264" style="edgeStyle=none;rounded=0;sketch=1;orthogonalLoop=1;jettySize=auto;html=1;entryX=1;entryY=0;entryDx=0;entryDy=0;strokeColor=#050505;fontColor=#050505;exitX=0.5;exitY=1;exitDx=0;exitDy=0;" parent="1" source="289" target="271" edge="1"><mxGeometry relative="1" as="geometry"><mxPoint x="196.61700935788383" y="18978.882990642116" as="targetPoint"/><mxPoint x="268.88847915050405" y="18938.32018478795" as="sourcePoint"/></mxGeometry></mxCell><mxCell id="265" style="edgeStyle=none;rounded=0;sketch=1;orthogonalLoop=1;jettySize=auto;html=1;entryX=0;entryY=0;entryDx=0;entryDy=0;strokeColor=#050505;fontColor=#050505;exitX=1;exitY=1;exitDx=0;exitDy=0;" parent="1" source="289" target="274" edge="1"><mxGeometry relative="1" as="geometry"><mxPoint x="289.28615837370535" y="18933.765254461636" as="sourcePoint"/></mxGeometry></mxCell><mxCell id="266" style="edgeStyle=none;rounded=0;sketch=1;orthogonalLoop=1;jettySize=auto;html=1;entryX=1;entryY=0;entryDx=0;entryDy=0;strokeColor=#050505;fontColor=#050505;" parent="1" source="268" target="277" edge="1"><mxGeometry relative="1" as="geometry"/></mxCell><mxCell id="267" style="edgeStyle=none;rounded=0;sketch=1;orthogonalLoop=1;jettySize=auto;html=1;entryX=0;entryY=0;entryDx=0;entryDy=0;strokeColor=#050505;fontColor=#050505;" parent="1" source="268" target="280" edge="1"><mxGeometry relative="1" as="geometry"/></mxCell><mxCell id="268" value="&lt;font style=&quot;font-size: 17px&quot;&gt;21&lt;/font&gt;" style="ellipse;whiteSpace=wrap;html=1;aspect=fixed;fillColor=#dae8fc;strokeColor=#6c8ebf;sketch=1;fontStyle=1;fontColor=#050505;" parent="1" vertex="1"><mxGeometry x="99.5" y="18892" width="47" height="47" as="geometry"/></mxCell><mxCell id="271" value="&lt;font style=&quot;font-size: 17px&quot;&gt;52&lt;/font&gt;" style="ellipse;whiteSpace=wrap;html=1;aspect=fixed;fillColor=#dae8fc;strokeColor=#6c8ebf;sketch=1;fontColor=#000000;fontStyle=1" parent="1" vertex="1"><mxGeometry x="219" y="18970" width="47" height="47" as="geometry"/></mxCell><mxCell id="274" value="&lt;font style=&quot;font-size: 17px&quot;&gt;82&lt;/font&gt;" style="ellipse;whiteSpace=wrap;html=1;aspect=fixed;fillColor=#dae8fc;strokeColor=#6c8ebf;sketch=1;fontStyle=1;fontColor=#050505;" parent="1" vertex="1"><mxGeometry x="319.5" y="18972" width="47" height="47" as="geometry"/></mxCell><mxCell id="277" value="&lt;font style=&quot;font-size: 17px&quot;&gt;18&lt;/font&gt;" style="ellipse;whiteSpace=wrap;html=1;aspect=fixed;fillColor=#dae8fc;strokeColor=#6c8ebf;sketch=1;fontStyle=1;fontColor=#050505;" parent="1" vertex="1"><mxGeometry x="26" y="18970" width="47" height="47" as="geometry"/></mxCell><mxCell id="280" value="&lt;font style=&quot;font-size: 17px&quot;&gt;27&lt;/font&gt;" style="ellipse;whiteSpace=wrap;html=1;aspect=fixed;fillColor=#dae8fc;strokeColor=#6c8ebf;sketch=1;fontStyle=1;fontColor=#000000;" parent="1" vertex="1"><mxGeometry x="124.5" y="18970" width="47" height="47" as="geometry"/></mxCell><mxCell id="289" value="&lt;font style=&quot;font-size: 17px&quot;&gt;76&lt;/font&gt;" style="ellipse;whiteSpace=wrap;html=1;aspect=fixed;fillColor=#dae8fc;strokeColor=#6c8ebf;sketch=1;fontColor=#000000;fontStyle=1" parent="1" vertex="1"><mxGeometry x="249" y="18892" width="47" height="47" as="geometry"/></mxCell><mxCell id="292" value="&lt;font color=&quot;#000000&quot; style=&quot;font-size: 14px&quot;&gt;Delete Introduction&lt;/font&gt;" style="text;html=1;align=center;verticalAlign=middle;resizable=0;points=[];autosize=1;" parent="1" vertex="1"><mxGeometry x="-25" y="18727" width="129" height="19" as="geometry"/></mxCell><mxCell id="369" style="edgeStyle=none;rounded=0;sketch=1;orthogonalLoop=1;jettySize=auto;html=1;fontColor=#050505;entryX=0;entryY=0;entryDx=0;entryDy=0;strokeColor=#000000;" parent="1" source="371" target="397" edge="1"><mxGeometry relative="1" as="geometry"><mxPoint x="255.88299064211628" y="19226.882990642116" as="targetPoint"/></mxGeometry></mxCell><mxCell id="370" style="edgeStyle=none;rounded=0;sketch=1;orthogonalLoop=1;jettySize=auto;html=1;entryX=1;entryY=0;entryDx=0;entryDy=0;fontColor=#050505;strokeColor=#000000;" parent="1" source="371" target="376" edge="1"><mxGeometry relative="1" as="geometry"/></mxCell><mxCell id="371" value="&lt;font style=&quot;font-size: 17px&quot;&gt;47&lt;/font&gt;" style="ellipse;whiteSpace=wrap;html=1;aspect=fixed;fillColor=#dae8fc;strokeColor=#6c8ebf;sketch=1;fontStyle=1;fontColor=#000000;" parent="1" vertex="1"><mxGeometry x="175" y="19142" width="47" height="47" as="geometry"/></mxCell><mxCell id="372" style="edgeStyle=none;rounded=0;sketch=1;orthogonalLoop=1;jettySize=auto;html=1;entryX=1;entryY=0;entryDx=0;entryDy=0;strokeColor=#050505;fontColor=#050505;exitX=0.5;exitY=1;exitDx=0;exitDy=0;" parent="1" source="397" target="379" edge="1"><mxGeometry relative="1" as="geometry"><mxPoint x="194.61700935788383" y="19306.882990642116" as="targetPoint"/><mxPoint x="266.88847915050405" y="19266.32018478795" as="sourcePoint"/></mxGeometry></mxCell><mxCell id="373" style="edgeStyle=none;rounded=0;sketch=1;orthogonalLoop=1;jettySize=auto;html=1;entryX=0;entryY=0;entryDx=0;entryDy=0;strokeColor=#050505;fontColor=#050505;exitX=1;exitY=1;exitDx=0;exitDy=0;" parent="1" source="397" target="382" edge="1"><mxGeometry relative="1" as="geometry"><mxPoint x="287.28615837370535" y="19261.765254461636" as="sourcePoint"/></mxGeometry></mxCell><mxCell id="374" style="edgeStyle=none;rounded=0;sketch=1;orthogonalLoop=1;jettySize=auto;html=1;entryX=1;entryY=0;entryDx=0;entryDy=0;strokeColor=#050505;fontColor=#050505;" parent="1" source="376" target="385" edge="1"><mxGeometry relative="1" as="geometry"/></mxCell><mxCell id="375" style="edgeStyle=none;rounded=0;sketch=1;orthogonalLoop=1;jettySize=auto;html=1;entryX=0;entryY=0;entryDx=0;entryDy=0;strokeColor=#050505;fontColor=#050505;" parent="1" source="376" target="388" edge="1"><mxGeometry relative="1" as="geometry"/></mxCell><mxCell id="376" value="&lt;font style=&quot;font-size: 17px&quot;&gt;21&lt;/font&gt;" style="ellipse;whiteSpace=wrap;html=1;aspect=fixed;fillColor=#dae8fc;strokeColor=#6c8ebf;sketch=1;fontStyle=1;fontColor=#050505;" parent="1" vertex="1"><mxGeometry x="97.5" y="19220" width="47" height="47" as="geometry"/></mxCell><mxCell id="379" value="&lt;font style=&quot;font-size: 17px&quot;&gt;52&lt;/font&gt;" style="ellipse;whiteSpace=wrap;html=1;aspect=fixed;fillColor=#dae8fc;strokeColor=#6c8ebf;sketch=1;fontColor=#000000;fontStyle=1" parent="1" vertex="1"><mxGeometry x="217" y="19298" width="47" height="47" as="geometry"/></mxCell><mxCell id="382" value="&lt;font style=&quot;font-size: 17px&quot;&gt;82&lt;/font&gt;" style="ellipse;whiteSpace=wrap;html=1;aspect=fixed;fillColor=#dae8fc;strokeColor=#6c8ebf;sketch=1;fontStyle=1;fontColor=#050505;" parent="1" vertex="1"><mxGeometry x="317.5" y="19300" width="47" height="47" as="geometry"/></mxCell><mxCell id="385" value="&lt;font style=&quot;font-size: 17px&quot;&gt;18&lt;/font&gt;" style="ellipse;whiteSpace=wrap;html=1;aspect=fixed;fillColor=#dae8fc;strokeColor=#6c8ebf;sketch=1;fontStyle=1;fontColor=#050505;" parent="1" vertex="1"><mxGeometry x="24" y="19298" width="47" height="47" as="geometry"/></mxCell><mxCell id="388" value="&lt;font style=&quot;font-size: 17px&quot;&gt;27&lt;/font&gt;" style="ellipse;whiteSpace=wrap;html=1;aspect=fixed;fillColor=#dae8fc;strokeColor=#6c8ebf;sketch=1;fontStyle=1;fontColor=#000000;" parent="1" vertex="1"><mxGeometry x="122.5" y="19298" width="47" height="47" as="geometry"/></mxCell><mxCell id="397" value="&lt;font style=&quot;font-size: 17px&quot;&gt;76&lt;/font&gt;" style="ellipse;whiteSpace=wrap;html=1;aspect=fixed;fillColor=#dae8fc;strokeColor=#6c8ebf;sketch=1;fontColor=#000000;fontStyle=1" parent="1" vertex="1"><mxGeometry x="247" y="19220" width="47" height="47" as="geometry"/></mxCell><mxCell id="652" style="edgeStyle=none;rounded=0;sketch=1;orthogonalLoop=1;jettySize=auto;html=1;fontColor=#050505;entryX=0;entryY=0;entryDx=0;entryDy=0;strokeColor=#000000;" edge="1" source="654" target="664" parent="1"><mxGeometry relative="1" as="geometry"><mxPoint x="242.88299064211628" y="19513.882990642116" as="targetPoint"/></mxGeometry></mxCell><mxCell id="653" style="edgeStyle=none;rounded=0;sketch=1;orthogonalLoop=1;jettySize=auto;html=1;entryX=1;entryY=0;entryDx=0;entryDy=0;fontColor=#050505;strokeColor=#000000;" edge="1" source="654" target="659" parent="1"><mxGeometry relative="1" as="geometry"/></mxCell><mxCell id="654" value="&lt;font style=&quot;font-size: 17px&quot;&gt;47&lt;/font&gt;" style="ellipse;whiteSpace=wrap;html=1;aspect=fixed;fillColor=#ffe6cc;strokeColor=#d79b00;sketch=1;fontStyle=1;fontColor=#000000;" vertex="1" parent="1"><mxGeometry x="162" y="19429" width="47" height="47" as="geometry"/></mxCell><mxCell id="655" style="edgeStyle=none;rounded=0;sketch=1;orthogonalLoop=1;jettySize=auto;html=1;entryX=1;entryY=0;entryDx=0;entryDy=0;strokeColor=#050505;fontColor=#050505;exitX=0.5;exitY=1;exitDx=0;exitDy=0;" edge="1" source="664" target="660" parent="1"><mxGeometry relative="1" as="geometry"><mxPoint x="181.61700935788383" y="19593.882990642116" as="targetPoint"/><mxPoint x="253.88847915050405" y="19553.32018478795" as="sourcePoint"/></mxGeometry></mxCell><mxCell id="656" style="edgeStyle=none;rounded=0;sketch=1;orthogonalLoop=1;jettySize=auto;html=1;entryX=0;entryY=0;entryDx=0;entryDy=0;strokeColor=#050505;fontColor=#050505;exitX=1;exitY=1;exitDx=0;exitDy=0;" edge="1" source="664" target="661" parent="1"><mxGeometry relative="1" as="geometry"><mxPoint x="274.28615837370535" y="19548.765254461636" as="sourcePoint"/></mxGeometry></mxCell><mxCell id="657" style="edgeStyle=none;rounded=0;sketch=1;orthogonalLoop=1;jettySize=auto;html=1;entryX=1;entryY=0;entryDx=0;entryDy=0;strokeColor=#050505;fontColor=#050505;" edge="1" source="659" target="662" parent="1"><mxGeometry relative="1" as="geometry"/></mxCell><mxCell id="658" style="edgeStyle=none;rounded=0;sketch=1;orthogonalLoop=1;jettySize=auto;html=1;entryX=0;entryY=0;entryDx=0;entryDy=0;strokeColor=#050505;fontColor=#050505;" edge="1" source="659" target="663" parent="1"><mxGeometry relative="1" as="geometry"/></mxCell><mxCell id="659" value="&lt;font style=&quot;font-size: 17px&quot;&gt;21&lt;/font&gt;" style="ellipse;whiteSpace=wrap;html=1;aspect=fixed;fillColor=#dae8fc;strokeColor=#6c8ebf;sketch=1;fontStyle=1;fontColor=#050505;" vertex="1" parent="1"><mxGeometry x="84.5" y="19507" width="47" height="47" as="geometry"/></mxCell><mxCell id="660" value="&lt;font style=&quot;font-size: 17px&quot;&gt;52&lt;/font&gt;" style="ellipse;whiteSpace=wrap;html=1;aspect=fixed;fillColor=#dae8fc;strokeColor=#6c8ebf;sketch=1;fontColor=#000000;fontStyle=1" vertex="1" parent="1"><mxGeometry x="204" y="19585" width="47" height="47" as="geometry"/></mxCell><mxCell id="661" value="&lt;font style=&quot;font-size: 17px&quot;&gt;82&lt;/font&gt;" style="ellipse;whiteSpace=wrap;html=1;aspect=fixed;fillColor=#dae8fc;strokeColor=#6c8ebf;sketch=1;fontStyle=1;fontColor=#050505;" vertex="1" parent="1"><mxGeometry x="304.5" y="19587" width="47" height="47" as="geometry"/></mxCell><mxCell id="662" value="&lt;font style=&quot;font-size: 17px&quot;&gt;18&lt;/font&gt;" style="ellipse;whiteSpace=wrap;html=1;aspect=fixed;fillColor=#dae8fc;strokeColor=#6c8ebf;sketch=1;fontStyle=1;fontColor=#050505;" vertex="1" parent="1"><mxGeometry x="11" y="19585" width="47" height="47" as="geometry"/></mxCell><mxCell id="663" value="&lt;font style=&quot;font-size: 17px&quot;&gt;27&lt;/font&gt;" style="ellipse;whiteSpace=wrap;html=1;aspect=fixed;fillColor=#dae8fc;strokeColor=#6c8ebf;sketch=1;fontStyle=1;fontColor=#000000;" vertex="1" parent="1"><mxGeometry x="109.5" y="19585" width="47" height="47" as="geometry"/></mxCell><mxCell id="664" value="&lt;font style=&quot;font-size: 17px&quot;&gt;76&lt;/font&gt;" style="ellipse;whiteSpace=wrap;html=1;aspect=fixed;fillColor=#dae8fc;strokeColor=#6c8ebf;sketch=1;fontColor=#000000;fontStyle=1" vertex="1" parent="1"><mxGeometry x="234" y="19507" width="47" height="47" as="geometry"/></mxCell><mxCell id="665" value="queue: [&amp;nbsp; &amp;nbsp;]" style="text;html=1;strokeColor=none;fillColor=none;align=left;verticalAlign=middle;whiteSpace=wrap;rounded=0;fontColor=#000000;fontSize=16;fontFamily=Courier New;" vertex="1" parent="1"><mxGeometry x="372" y="19442.5" width="204.5" height="20" as="geometry"/></mxCell><mxCell id="666" value="results: []" style="text;html=1;strokeColor=none;fillColor=none;align=left;verticalAlign=middle;whiteSpace=wrap;rounded=0;fontColor=#000000;fontSize=16;fontFamily=Courier New;" vertex="1" parent="1"><mxGeometry x="372" y="19492" width="115" height="20" as="geometry"/></mxCell><mxCell id="668" value="&lt;font style=&quot;font-size: 11px;&quot;&gt;47&lt;/font&gt;" style="ellipse;whiteSpace=wrap;html=1;aspect=fixed;fillColor=#ffe6cc;strokeColor=#d79b00;sketch=1;fontStyle=1;fontColor=#000000;fontSize=11;" vertex="1" parent="1"><mxGeometry x="453.75" y="19437" width="28" height="28" as="geometry"/></mxCell><mxCell id="669" style="edgeStyle=none;rounded=0;sketch=1;orthogonalLoop=1;jettySize=auto;html=1;fontColor=#050505;entryX=0;entryY=0;entryDx=0;entryDy=0;strokeColor=#000000;" edge="1" source="671" target="681" parent="1"><mxGeometry relative="1" as="geometry"><mxPoint x="242.88299064211628" y="19773.882990642116" as="targetPoint"/></mxGeometry></mxCell><mxCell id="670" style="edgeStyle=none;rounded=0;sketch=1;orthogonalLoop=1;jettySize=auto;html=1;entryX=1;entryY=0;entryDx=0;entryDy=0;fontColor=#050505;strokeColor=#000000;" edge="1" source="671" target="676" parent="1"><mxGeometry relative="1" as="geometry"/></mxCell><mxCell id="671" value="&lt;font style=&quot;font-size: 17px&quot;&gt;47&lt;/font&gt;" style="ellipse;whiteSpace=wrap;html=1;aspect=fixed;fillColor=#ffe6cc;strokeColor=#d79b00;sketch=1;fontStyle=1;fontColor=#000000;" vertex="1" parent="1"><mxGeometry x="162" y="19689" width="47" height="47" as="geometry"/></mxCell><mxCell id="672" style="edgeStyle=none;rounded=0;sketch=1;orthogonalLoop=1;jettySize=auto;html=1;entryX=1;entryY=0;entryDx=0;entryDy=0;strokeColor=#050505;fontColor=#050505;exitX=0.5;exitY=1;exitDx=0;exitDy=0;" edge="1" source="681" target="677" parent="1"><mxGeometry relative="1" as="geometry"><mxPoint x="181.61700935788383" y="19853.882990642116" as="targetPoint"/><mxPoint x="253.88847915050405" y="19813.32018478795" as="sourcePoint"/></mxGeometry></mxCell><mxCell id="673" style="edgeStyle=none;rounded=0;sketch=1;orthogonalLoop=1;jettySize=auto;html=1;entryX=0;entryY=0;entryDx=0;entryDy=0;strokeColor=#050505;fontColor=#050505;exitX=1;exitY=1;exitDx=0;exitDy=0;" edge="1" source="681" target="678" parent="1"><mxGeometry relative="1" as="geometry"><mxPoint x="274.28615837370535" y="19808.765254461636" as="sourcePoint"/></mxGeometry></mxCell><mxCell id="674" style="edgeStyle=none;rounded=0;sketch=1;orthogonalLoop=1;jettySize=auto;html=1;entryX=1;entryY=0;entryDx=0;entryDy=0;strokeColor=#050505;fontColor=#050505;" edge="1" source="676" target="679" parent="1"><mxGeometry relative="1" as="geometry"/></mxCell><mxCell id="675" style="edgeStyle=none;rounded=0;sketch=1;orthogonalLoop=1;jettySize=auto;html=1;entryX=0;entryY=0;entryDx=0;entryDy=0;strokeColor=#050505;fontColor=#050505;" edge="1" source="676" target="680" parent="1"><mxGeometry relative="1" as="geometry"/></mxCell><mxCell id="676" value="&lt;font style=&quot;font-size: 17px&quot;&gt;21&lt;/font&gt;" style="ellipse;whiteSpace=wrap;html=1;aspect=fixed;fillColor=#dae8fc;strokeColor=#6c8ebf;sketch=1;fontStyle=1;fontColor=#050505;" vertex="1" parent="1"><mxGeometry x="84.5" y="19767" width="47" height="47" as="geometry"/></mxCell><mxCell id="677" value="&lt;font style=&quot;font-size: 17px&quot;&gt;52&lt;/font&gt;" style="ellipse;whiteSpace=wrap;html=1;aspect=fixed;fillColor=#dae8fc;strokeColor=#6c8ebf;sketch=1;fontColor=#000000;fontStyle=1" vertex="1" parent="1"><mxGeometry x="204" y="19845" width="47" height="47" as="geometry"/></mxCell><mxCell id="678" value="&lt;font style=&quot;font-size: 17px&quot;&gt;82&lt;/font&gt;" style="ellipse;whiteSpace=wrap;html=1;aspect=fixed;fillColor=#dae8fc;strokeColor=#6c8ebf;sketch=1;fontStyle=1;fontColor=#050505;" vertex="1" parent="1"><mxGeometry x="304.5" y="19847" width="47" height="47" as="geometry"/></mxCell><mxCell id="679" value="&lt;font style=&quot;font-size: 17px&quot;&gt;18&lt;/font&gt;" style="ellipse;whiteSpace=wrap;html=1;aspect=fixed;fillColor=#dae8fc;strokeColor=#6c8ebf;sketch=1;fontStyle=1;fontColor=#050505;" vertex="1" parent="1"><mxGeometry x="11" y="19845" width="47" height="47" as="geometry"/></mxCell><mxCell id="680" value="&lt;font style=&quot;font-size: 17px&quot;&gt;27&lt;/font&gt;" style="ellipse;whiteSpace=wrap;html=1;aspect=fixed;fillColor=#dae8fc;strokeColor=#6c8ebf;sketch=1;fontStyle=1;fontColor=#000000;" vertex="1" parent="1"><mxGeometry x="109.5" y="19845" width="47" height="47" as="geometry"/></mxCell><mxCell id="681" value="&lt;font style=&quot;font-size: 17px&quot;&gt;76&lt;/font&gt;" style="ellipse;whiteSpace=wrap;html=1;aspect=fixed;fillColor=#dae8fc;strokeColor=#6c8ebf;sketch=1;fontColor=#000000;fontStyle=1" vertex="1" parent="1"><mxGeometry x="234" y="19767" width="47" height="47" as="geometry"/></mxCell><mxCell id="686" style="edgeStyle=orthogonalEdgeStyle;rounded=0;orthogonalLoop=1;jettySize=auto;html=1;entryX=1;entryY=0.5;entryDx=0;entryDy=0;fontFamily=Courier New;fontSize=11;fontColor=#000000;strokeColor=#666666;curved=1;sketch=1;exitX=0.402;exitY=-0.011;exitDx=0;exitDy=0;exitPerimeter=0;fillColor=#f5f5f5;" edge="1" parent="1" source="682" target="684"><mxGeometry relative="1" as="geometry"><Array as="points"><mxPoint x="387" y="19682"/><mxPoint x="500" y="19682"/><mxPoint x="500" y="19736"/></Array></mxGeometry></mxCell><mxCell id="682" value="queue: []" style="text;html=1;strokeColor=none;fillColor=none;align=left;verticalAlign=middle;whiteSpace=wrap;rounded=0;fontColor=#000000;fontSize=16;fontFamily=Courier New;" vertex="1" parent="1"><mxGeometry x="304.5" y="19702.5" width="204.5" height="20" as="geometry"/></mxCell><mxCell id="683" value="results: [&lt;b&gt;&lt;font color=&quot;#006600&quot;&gt;47&lt;/font&gt;&lt;/b&gt;]" style="text;html=1;strokeColor=none;fillColor=none;align=left;verticalAlign=middle;whiteSpace=wrap;rounded=0;fontColor=#000000;fontSize=16;fontFamily=Courier New;" vertex="1" parent="1"><mxGeometry x="304.5" y="19769" width="150" height="20" as="geometry"/></mxCell><mxCell id="688" style="edgeStyle=orthogonalEdgeStyle;curved=1;rounded=0;sketch=1;orthogonalLoop=1;jettySize=auto;html=1;entryX=0.687;entryY=-0.06;entryDx=0;entryDy=0;entryPerimeter=0;strokeColor=#666666;fontFamily=Courier New;fontSize=11;fontColor=#000000;exitX=0;exitY=0.5;exitDx=0;exitDy=0;fillColor=#f5f5f5;" edge="1" parent="1" source="684" target="683"><mxGeometry relative="1" as="geometry"><Array as="points"><mxPoint x="408" y="19736"/></Array></mxGeometry></mxCell><mxCell id="684" value="&lt;font style=&quot;font-size: 11px;&quot;&gt;47&lt;/font&gt;" style="ellipse;whiteSpace=wrap;html=1;aspect=fixed;fillColor=#f5f5f5;strokeColor=#666666;sketch=1;fontStyle=1;fontColor=#333333;fontSize=11;" vertex="1" parent="1"><mxGeometry x="457" y="19722.5" width="28" height="28" as="geometry"/></mxCell><mxCell id="687" value="dequeue" style="text;html=1;align=center;verticalAlign=middle;resizable=0;points=[];autosize=1;fontSize=11;fontFamily=Courier New;fontColor=#000000;fontStyle=1" vertex="1" parent="1"><mxGeometry x="409" y="19664" width="59" height="17" as="geometry"/></mxCell><mxCell id="689" value="&lt;font color=&quot;#006600&quot;&gt;&lt;b&gt;node.value&lt;/b&gt;&lt;/font&gt;" style="text;html=1;align=center;verticalAlign=middle;resizable=0;points=[];autosize=1;fontSize=11;fontFamily=Courier New;fontColor=#000000;rotation=-15;fontStyle=0" vertex="1" parent="1"><mxGeometry x="373.75" y="19728" width="80" height="17" as="geometry"/></mxCell><mxCell id="691" style="edgeStyle=none;rounded=0;sketch=1;orthogonalLoop=1;jettySize=auto;html=1;fontColor=#050505;entryX=0;entryY=0;entryDx=0;entryDy=0;strokeColor=#000000;" edge="1" source="693" target="703" parent="1"><mxGeometry relative="1" as="geometry"><mxPoint x="240.38299064211628" y="20034.882990642116" as="targetPoint"/></mxGeometry></mxCell><mxCell id="692" style="edgeStyle=none;rounded=0;sketch=1;orthogonalLoop=1;jettySize=auto;html=1;entryX=1;entryY=0;entryDx=0;entryDy=0;fontColor=#050505;strokeColor=#000000;" edge="1" source="693" target="698" parent="1"><mxGeometry relative="1" as="geometry"/></mxCell><mxCell id="693" value="&lt;font style=&quot;font-size: 17px&quot;&gt;47&lt;/font&gt;" style="ellipse;whiteSpace=wrap;html=1;aspect=fixed;fillColor=#ffe6cc;strokeColor=#d79b00;sketch=1;fontStyle=1;fontColor=#000000;" vertex="1" parent="1"><mxGeometry x="159.5" y="19950" width="47" height="47" as="geometry"/></mxCell><mxCell id="694" style="edgeStyle=none;rounded=0;sketch=1;orthogonalLoop=1;jettySize=auto;html=1;entryX=1;entryY=0;entryDx=0;entryDy=0;strokeColor=#050505;fontColor=#050505;exitX=0.5;exitY=1;exitDx=0;exitDy=0;" edge="1" source="703" target="699" parent="1"><mxGeometry relative="1" as="geometry"><mxPoint x="179.11700935788383" y="20114.882990642116" as="targetPoint"/><mxPoint x="251.38847915050405" y="20074.32018478795" as="sourcePoint"/></mxGeometry></mxCell><mxCell id="695" style="edgeStyle=none;rounded=0;sketch=1;orthogonalLoop=1;jettySize=auto;html=1;entryX=0;entryY=0;entryDx=0;entryDy=0;strokeColor=#050505;fontColor=#050505;exitX=1;exitY=1;exitDx=0;exitDy=0;" edge="1" source="703" target="700" parent="1"><mxGeometry relative="1" as="geometry"><mxPoint x="271.78615837370535" y="20069.765254461636" as="sourcePoint"/></mxGeometry></mxCell><mxCell id="696" style="edgeStyle=none;rounded=0;sketch=1;orthogonalLoop=1;jettySize=auto;html=1;entryX=1;entryY=0;entryDx=0;entryDy=0;strokeColor=#050505;fontColor=#050505;" edge="1" source="698" target="701" parent="1"><mxGeometry relative="1" as="geometry"/></mxCell><mxCell id="697" style="edgeStyle=none;rounded=0;sketch=1;orthogonalLoop=1;jettySize=auto;html=1;entryX=0;entryY=0;entryDx=0;entryDy=0;strokeColor=#050505;fontColor=#050505;" edge="1" source="698" target="702" parent="1"><mxGeometry relative="1" as="geometry"/></mxCell><mxCell id="698" value="&lt;font style=&quot;font-size: 17px&quot;&gt;21&lt;/font&gt;" style="ellipse;whiteSpace=wrap;html=1;aspect=fixed;fillColor=#ffe6cc;strokeColor=#d79b00;sketch=1;fontStyle=1;fontColor=#000000;" vertex="1" parent="1"><mxGeometry x="82" y="20028" width="47" height="47" as="geometry"/></mxCell><mxCell id="699" value="&lt;font style=&quot;font-size: 17px&quot;&gt;52&lt;/font&gt;" style="ellipse;whiteSpace=wrap;html=1;aspect=fixed;fillColor=#dae8fc;strokeColor=#6c8ebf;sketch=1;fontColor=#000000;fontStyle=1" vertex="1" parent="1"><mxGeometry x="201.5" y="20106" width="47" height="47" as="geometry"/></mxCell><mxCell id="700" value="&lt;font style=&quot;font-size: 17px&quot;&gt;82&lt;/font&gt;" style="ellipse;whiteSpace=wrap;html=1;aspect=fixed;fillColor=#dae8fc;strokeColor=#6c8ebf;sketch=1;fontStyle=1;fontColor=#050505;" vertex="1" parent="1"><mxGeometry x="302" y="20108" width="47" height="47" as="geometry"/></mxCell><mxCell id="701" value="&lt;font style=&quot;font-size: 17px&quot;&gt;18&lt;/font&gt;" style="ellipse;whiteSpace=wrap;html=1;aspect=fixed;fillColor=#dae8fc;strokeColor=#6c8ebf;sketch=1;fontStyle=1;fontColor=#050505;" vertex="1" parent="1"><mxGeometry x="8.5" y="20106" width="47" height="47" as="geometry"/></mxCell><mxCell id="702" value="&lt;font style=&quot;font-size: 17px&quot;&gt;27&lt;/font&gt;" style="ellipse;whiteSpace=wrap;html=1;aspect=fixed;fillColor=#dae8fc;strokeColor=#6c8ebf;sketch=1;fontStyle=1;fontColor=#000000;" vertex="1" parent="1"><mxGeometry x="107" y="20106" width="47" height="47" as="geometry"/></mxCell><mxCell id="703" value="&lt;font style=&quot;font-size: 17px&quot;&gt;76&lt;/font&gt;" style="ellipse;whiteSpace=wrap;html=1;aspect=fixed;fillColor=#dae8fc;strokeColor=#6c8ebf;sketch=1;fontColor=#000000;fontStyle=1" vertex="1" parent="1"><mxGeometry x="231.5" y="20028" width="47" height="47" as="geometry"/></mxCell><mxCell id="705" value="queue: [&amp;nbsp; &amp;nbsp; ]" style="text;html=1;strokeColor=none;fillColor=none;align=left;verticalAlign=middle;whiteSpace=wrap;rounded=0;fontColor=#000000;fontSize=16;fontFamily=Courier New;" vertex="1" parent="1"><mxGeometry x="302" y="19963.5" width="204.5" height="20" as="geometry"/></mxCell><mxCell id="706" value="results: [&lt;b&gt;&lt;font color=&quot;#006600&quot;&gt;47&lt;/font&gt;&lt;/b&gt;]" style="text;html=1;strokeColor=none;fillColor=none;align=left;verticalAlign=middle;whiteSpace=wrap;rounded=0;fontColor=#000000;fontSize=16;fontFamily=Courier New;" vertex="1" parent="1"><mxGeometry x="302" y="20030" width="150" height="20" as="geometry"/></mxCell><mxCell id="711" value="&lt;font style=&quot;font-size: 11px&quot;&gt;21&lt;/font&gt;" style="ellipse;whiteSpace=wrap;html=1;aspect=fixed;fillColor=#ffe6cc;strokeColor=#d79b00;sketch=1;fontStyle=1;fontColor=#000000;fontSize=11;" vertex="1" parent="1"><mxGeometry x="387" y="19959.5" width="28" height="28" as="geometry"/></mxCell><mxCell id="712" style="edgeStyle=none;rounded=0;sketch=1;orthogonalLoop=1;jettySize=auto;html=1;fontColor=#050505;entryX=0;entryY=0;entryDx=0;entryDy=0;strokeColor=#000000;" edge="1" source="714" target="724" parent="1"><mxGeometry relative="1" as="geometry"><mxPoint x="242.88299064211628" y="20680.882990642116" as="targetPoint"/></mxGeometry></mxCell><mxCell id="713" style="edgeStyle=none;rounded=0;sketch=1;orthogonalLoop=1;jettySize=auto;html=1;entryX=1;entryY=0;entryDx=0;entryDy=0;fontColor=#050505;strokeColor=#000000;" edge="1" source="714" target="719" parent="1"><mxGeometry relative="1" as="geometry"/></mxCell><mxCell id="714" value="&lt;font style=&quot;font-size: 17px&quot;&gt;47&lt;/font&gt;" style="ellipse;whiteSpace=wrap;html=1;aspect=fixed;fillColor=#ffe6cc;strokeColor=#d79b00;sketch=1;fontStyle=1;fontColor=#000000;" vertex="1" parent="1"><mxGeometry x="162" y="20596" width="47" height="47" as="geometry"/></mxCell><mxCell id="715" style="edgeStyle=none;rounded=0;sketch=1;orthogonalLoop=1;jettySize=auto;html=1;entryX=1;entryY=0;entryDx=0;entryDy=0;strokeColor=#050505;fontColor=#050505;exitX=0.5;exitY=1;exitDx=0;exitDy=0;" edge="1" source="724" target="720" parent="1"><mxGeometry relative="1" as="geometry"><mxPoint x="181.61700935788383" y="20760.882990642116" as="targetPoint"/><mxPoint x="253.88847915050405" y="20720.32018478795" as="sourcePoint"/></mxGeometry></mxCell><mxCell id="716" style="edgeStyle=none;rounded=0;sketch=1;orthogonalLoop=1;jettySize=auto;html=1;entryX=0;entryY=0;entryDx=0;entryDy=0;strokeColor=#050505;fontColor=#050505;exitX=1;exitY=1;exitDx=0;exitDy=0;" edge="1" source="724" target="721" parent="1"><mxGeometry relative="1" as="geometry"><mxPoint x="274.28615837370535" y="20715.765254461636" as="sourcePoint"/></mxGeometry></mxCell><mxCell id="717" style="edgeStyle=none;rounded=0;sketch=1;orthogonalLoop=1;jettySize=auto;html=1;entryX=1;entryY=0;entryDx=0;entryDy=0;strokeColor=#050505;fontColor=#050505;" edge="1" source="719" target="722" parent="1"><mxGeometry relative="1" as="geometry"/></mxCell><mxCell id="718" style="edgeStyle=none;rounded=0;sketch=1;orthogonalLoop=1;jettySize=auto;html=1;entryX=0;entryY=0;entryDx=0;entryDy=0;strokeColor=#050505;fontColor=#050505;" edge="1" source="719" target="723" parent="1"><mxGeometry relative="1" as="geometry"/></mxCell><mxCell id="719" value="&lt;font style=&quot;font-size: 17px&quot;&gt;21&lt;/font&gt;" style="ellipse;whiteSpace=wrap;html=1;aspect=fixed;fillColor=#ffe6cc;strokeColor=#d79b00;sketch=1;fontStyle=1;fontColor=#000000;" vertex="1" parent="1"><mxGeometry x="84.5" y="20674" width="47" height="47" as="geometry"/></mxCell><mxCell id="720" value="&lt;font style=&quot;font-size: 17px&quot;&gt;52&lt;/font&gt;" style="ellipse;whiteSpace=wrap;html=1;aspect=fixed;fillColor=#dae8fc;strokeColor=#6c8ebf;sketch=1;fontColor=#000000;fontStyle=1" vertex="1" parent="1"><mxGeometry x="204" y="20752" width="47" height="47" as="geometry"/></mxCell><mxCell id="721" value="&lt;font style=&quot;font-size: 17px&quot;&gt;82&lt;/font&gt;" style="ellipse;whiteSpace=wrap;html=1;aspect=fixed;fillColor=#dae8fc;strokeColor=#6c8ebf;sketch=1;fontStyle=1;fontColor=#050505;" vertex="1" parent="1"><mxGeometry x="304.5" y="20754" width="47" height="47" as="geometry"/></mxCell><mxCell id="722" value="&lt;font style=&quot;font-size: 17px&quot;&gt;18&lt;/font&gt;" style="ellipse;whiteSpace=wrap;html=1;aspect=fixed;fillColor=#dae8fc;strokeColor=#6c8ebf;sketch=1;fontStyle=1;fontColor=#050505;" vertex="1" parent="1"><mxGeometry x="11" y="20752" width="47" height="47" as="geometry"/></mxCell><mxCell id="723" value="&lt;font style=&quot;font-size: 17px&quot;&gt;27&lt;/font&gt;" style="ellipse;whiteSpace=wrap;html=1;aspect=fixed;fillColor=#dae8fc;strokeColor=#6c8ebf;sketch=1;fontStyle=1;fontColor=#000000;" vertex="1" parent="1"><mxGeometry x="109.5" y="20752" width="47" height="47" as="geometry"/></mxCell><mxCell id="724" value="&lt;font style=&quot;font-size: 17px&quot;&gt;76&lt;/font&gt;" style="ellipse;whiteSpace=wrap;html=1;aspect=fixed;fillColor=#ffe6cc;strokeColor=#d79b00;sketch=1;fontStyle=1;fontColor=#000000;" vertex="1" parent="1"><mxGeometry x="234" y="20674" width="47" height="47" as="geometry"/></mxCell><mxCell id="725" value="queue: [&amp;nbsp; &amp;nbsp; ,&amp;nbsp; &amp;nbsp; &amp;nbsp;]" style="text;html=1;strokeColor=none;fillColor=none;align=left;verticalAlign=middle;whiteSpace=wrap;rounded=0;fontColor=#000000;fontSize=16;fontFamily=Courier New;" vertex="1" parent="1"><mxGeometry x="304.5" y="20609.5" width="204.5" height="20" as="geometry"/></mxCell><mxCell id="726" value="results: [&lt;b&gt;&lt;font color=&quot;#006600&quot;&gt;47&lt;/font&gt;&lt;/b&gt;,&amp;nbsp;&lt;b&gt;&lt;font color=&quot;#006600&quot;&gt;21&lt;/font&gt;&lt;/b&gt;]" style="text;html=1;strokeColor=none;fillColor=none;align=left;verticalAlign=middle;whiteSpace=wrap;rounded=0;fontColor=#000000;fontSize=16;fontFamily=Courier New;" vertex="1" parent="1"><mxGeometry x="304.5" y="20676" width="228.5" height="20" as="geometry"/></mxCell><mxCell id="727" value="&lt;font style=&quot;font-size: 11px&quot;&gt;21&lt;/font&gt;" style="ellipse;whiteSpace=wrap;html=1;aspect=fixed;fillColor=#f5f5f5;strokeColor=#666666;sketch=1;fontStyle=1;fontColor=#333333;fontSize=11;opacity=30;textOpacity=30;" vertex="1" parent="1"><mxGeometry x="389.5" y="20605.5" width="28" height="28" as="geometry"/></mxCell><mxCell id="728" value="&lt;font style=&quot;font-size: 11px&quot;&gt;76&lt;/font&gt;" style="ellipse;whiteSpace=wrap;html=1;aspect=fixed;fillColor=#ffe6cc;strokeColor=#d79b00;sketch=1;fontStyle=1;fontColor=#000000;fontSize=11;" vertex="1" parent="1"><mxGeometry x="444" y="20605.5" width="28" height="28" as="geometry"/></mxCell><mxCell id="730" style="edgeStyle=none;rounded=0;sketch=1;orthogonalLoop=1;jettySize=auto;html=1;fontColor=#050505;entryX=0;entryY=0;entryDx=0;entryDy=0;strokeColor=#000000;" edge="1" source="732" target="742" parent="1"><mxGeometry relative="1" as="geometry"><mxPoint x="242.88299064211628" y="20325.882990642116" as="targetPoint"/></mxGeometry></mxCell><mxCell id="731" style="edgeStyle=none;rounded=0;sketch=1;orthogonalLoop=1;jettySize=auto;html=1;entryX=1;entryY=0;entryDx=0;entryDy=0;fontColor=#050505;strokeColor=#000000;" edge="1" source="732" target="737" parent="1"><mxGeometry relative="1" as="geometry"/></mxCell><mxCell id="732" value="&lt;font style=&quot;font-size: 17px&quot;&gt;47&lt;/font&gt;" style="ellipse;whiteSpace=wrap;html=1;aspect=fixed;fillColor=#ffe6cc;strokeColor=#d79b00;sketch=1;fontStyle=1;fontColor=#000000;" vertex="1" parent="1"><mxGeometry x="162" y="20241" width="47" height="47" as="geometry"/></mxCell><mxCell id="733" style="edgeStyle=none;rounded=0;sketch=1;orthogonalLoop=1;jettySize=auto;html=1;entryX=1;entryY=0;entryDx=0;entryDy=0;strokeColor=#050505;fontColor=#050505;exitX=0.5;exitY=1;exitDx=0;exitDy=0;" edge="1" source="742" target="738" parent="1"><mxGeometry relative="1" as="geometry"><mxPoint x="181.61700935788383" y="20405.882990642116" as="targetPoint"/><mxPoint x="253.88847915050405" y="20365.32018478795" as="sourcePoint"/></mxGeometry></mxCell><mxCell id="734" style="edgeStyle=none;rounded=0;sketch=1;orthogonalLoop=1;jettySize=auto;html=1;entryX=0;entryY=0;entryDx=0;entryDy=0;strokeColor=#050505;fontColor=#050505;exitX=1;exitY=1;exitDx=0;exitDy=0;" edge="1" source="742" target="739" parent="1"><mxGeometry relative="1" as="geometry"><mxPoint x="274.28615837370535" y="20360.765254461636" as="sourcePoint"/></mxGeometry></mxCell><mxCell id="735" style="edgeStyle=none;rounded=0;sketch=1;orthogonalLoop=1;jettySize=auto;html=1;entryX=1;entryY=0;entryDx=0;entryDy=0;strokeColor=#050505;fontColor=#050505;" edge="1" source="737" target="740" parent="1"><mxGeometry relative="1" as="geometry"/></mxCell><mxCell id="736" style="edgeStyle=none;rounded=0;sketch=1;orthogonalLoop=1;jettySize=auto;html=1;entryX=0;entryY=0;entryDx=0;entryDy=0;strokeColor=#050505;fontColor=#050505;" edge="1" source="737" target="741" parent="1"><mxGeometry relative="1" as="geometry"/></mxCell><mxCell id="737" value="&lt;font style=&quot;font-size: 17px&quot;&gt;21&lt;/font&gt;" style="ellipse;whiteSpace=wrap;html=1;aspect=fixed;fillColor=#ffe6cc;strokeColor=#d79b00;sketch=1;fontStyle=1;fontColor=#000000;" vertex="1" parent="1"><mxGeometry x="84.5" y="20319" width="47" height="47" as="geometry"/></mxCell><mxCell id="738" value="&lt;font style=&quot;font-size: 17px&quot;&gt;52&lt;/font&gt;" style="ellipse;whiteSpace=wrap;html=1;aspect=fixed;fillColor=#dae8fc;strokeColor=#6c8ebf;sketch=1;fontColor=#000000;fontStyle=1" vertex="1" parent="1"><mxGeometry x="204" y="20397" width="47" height="47" as="geometry"/></mxCell><mxCell id="739" value="&lt;font style=&quot;font-size: 17px&quot;&gt;82&lt;/font&gt;" style="ellipse;whiteSpace=wrap;html=1;aspect=fixed;fillColor=#dae8fc;strokeColor=#6c8ebf;sketch=1;fontStyle=1;fontColor=#050505;" vertex="1" parent="1"><mxGeometry x="304.5" y="20399" width="47" height="47" as="geometry"/></mxCell><mxCell id="740" value="&lt;font style=&quot;font-size: 17px&quot;&gt;18&lt;/font&gt;" style="ellipse;whiteSpace=wrap;html=1;aspect=fixed;fillColor=#dae8fc;strokeColor=#6c8ebf;sketch=1;fontStyle=1;fontColor=#050505;" vertex="1" parent="1"><mxGeometry x="11" y="20397" width="47" height="47" as="geometry"/></mxCell><mxCell id="741" value="&lt;font style=&quot;font-size: 17px&quot;&gt;27&lt;/font&gt;" style="ellipse;whiteSpace=wrap;html=1;aspect=fixed;fillColor=#dae8fc;strokeColor=#6c8ebf;sketch=1;fontStyle=1;fontColor=#000000;" vertex="1" parent="1"><mxGeometry x="109.5" y="20397" width="47" height="47" as="geometry"/></mxCell><mxCell id="742" value="&lt;font style=&quot;font-size: 17px&quot;&gt;76&lt;/font&gt;" style="ellipse;whiteSpace=wrap;html=1;aspect=fixed;fillColor=#ffe6cc;strokeColor=#d79b00;sketch=1;fontStyle=1;fontColor=#000000;" vertex="1" parent="1"><mxGeometry x="234" y="20319" width="47" height="47" as="geometry"/></mxCell><mxCell id="743" value="queue: [&amp;nbsp; &amp;nbsp; ,&amp;nbsp; &amp;nbsp; &amp;nbsp;]" style="text;html=1;strokeColor=none;fillColor=none;align=left;verticalAlign=middle;whiteSpace=wrap;rounded=0;fontColor=#000000;fontSize=16;fontFamily=Courier New;" vertex="1" parent="1"><mxGeometry x="304.5" y="20254.5" width="204.5" height="20" as="geometry"/></mxCell><mxCell id="744" value="results: [&lt;b&gt;&lt;font color=&quot;#006600&quot;&gt;47&lt;/font&gt;&lt;/b&gt;]" style="text;html=1;strokeColor=none;fillColor=none;align=left;verticalAlign=middle;whiteSpace=wrap;rounded=0;fontColor=#000000;fontSize=16;fontFamily=Courier New;" vertex="1" parent="1"><mxGeometry x="304.5" y="20321" width="150" height="20" as="geometry"/></mxCell><mxCell id="745" value="&lt;font style=&quot;font-size: 11px&quot;&gt;21&lt;/font&gt;" style="ellipse;whiteSpace=wrap;html=1;aspect=fixed;fillColor=#f5f5f5;strokeColor=#666666;sketch=1;fontStyle=1;fontColor=#333333;fontSize=11;" vertex="1" parent="1"><mxGeometry x="389.5" y="20250.5" width="28" height="28" as="geometry"/></mxCell><mxCell id="746" value="&lt;font style=&quot;font-size: 11px&quot;&gt;76&lt;/font&gt;" style="ellipse;whiteSpace=wrap;html=1;aspect=fixed;fillColor=#ffe6cc;strokeColor=#d79b00;sketch=1;fontStyle=1;fontColor=#000000;fontSize=11;" vertex="1" parent="1"><mxGeometry x="444" y="20250.5" width="28" height="28" as="geometry"/></mxCell><mxCell id="747" value="dequeue" style="text;html=1;align=center;verticalAlign=middle;resizable=0;points=[];autosize=1;fontSize=11;fontFamily=Courier New;fontColor=#000000;fontStyle=1" vertex="1" parent="1"><mxGeometry x="438.25" y="20557" width="59" height="17" as="geometry"/></mxCell><mxCell id="748" style="edgeStyle=orthogonalEdgeStyle;rounded=0;orthogonalLoop=1;jettySize=auto;html=1;entryX=1;entryY=0;entryDx=0;entryDy=0;fontFamily=Courier New;fontSize=11;fontColor=#000000;strokeColor=#666666;curved=1;sketch=1;exitX=0.402;exitY=-0.011;exitDx=0;exitDy=0;exitPerimeter=0;fillColor=#f5f5f5;" edge="1" target="749" parent="1"><mxGeometry relative="1" as="geometry"><mxPoint x="415.95900000000006" y="20595.28" as="sourcePoint"/><Array as="points"><mxPoint x="416" y="20575"/><mxPoint x="513" y="20575"/></Array></mxGeometry></mxCell><mxCell id="749" value="&lt;font style=&quot;font-size: 11px&quot;&gt;21&lt;/font&gt;" style="ellipse;whiteSpace=wrap;html=1;aspect=fixed;fillColor=#f5f5f5;strokeColor=#666666;sketch=1;fontStyle=1;fontColor=#333333;fontSize=11;" vertex="1" parent="1"><mxGeometry x="489" y="20643" width="28" height="28" as="geometry"/></mxCell><mxCell id="750" value="&lt;font color=&quot;#006600&quot;&gt;&lt;b&gt;node.value&lt;/b&gt;&lt;/font&gt;" style="text;html=1;align=center;verticalAlign=middle;resizable=0;points=[];autosize=1;fontSize=11;fontFamily=Courier New;fontColor=#000000;rotation=-15;fontStyle=0" vertex="1" parent="1"><mxGeometry x="409" y="20643" width="80" height="17" as="geometry"/></mxCell><mxCell id="751" style="edgeStyle=orthogonalEdgeStyle;curved=1;rounded=0;sketch=1;orthogonalLoop=1;jettySize=auto;html=1;strokeColor=#666666;fontFamily=Courier New;fontSize=11;fontColor=#000000;exitX=0;exitY=0.5;exitDx=0;exitDy=0;fillColor=#f5f5f5;" edge="1" source="749" parent="1"><mxGeometry relative="1" as="geometry"><mxPoint x="450" y="20674" as="targetPoint"/><Array as="points"><mxPoint x="450" y="20657"/><mxPoint x="450" y="20674"/></Array></mxGeometry></mxCell><mxCell id="774" style="edgeStyle=none;rounded=0;sketch=1;orthogonalLoop=1;jettySize=auto;html=1;fontColor=#050505;entryX=0;entryY=0;entryDx=0;entryDy=0;strokeColor=#000000;" edge="1" source="776" target="786" parent="1"><mxGeometry relative="1" as="geometry"><mxPoint x="242.88299064211628" y="20998.882990642116" as="targetPoint"/></mxGeometry></mxCell><mxCell id="775" style="edgeStyle=none;rounded=0;sketch=1;orthogonalLoop=1;jettySize=auto;html=1;entryX=1;entryY=0;entryDx=0;entryDy=0;fontColor=#050505;strokeColor=#000000;" edge="1" source="776" target="781" parent="1"><mxGeometry relative="1" as="geometry"/></mxCell><mxCell id="776" value="&lt;font style=&quot;font-size: 17px&quot;&gt;47&lt;/font&gt;" style="ellipse;whiteSpace=wrap;html=1;aspect=fixed;fillColor=#ffe6cc;strokeColor=#d79b00;sketch=1;fontStyle=1;fontColor=#000000;" vertex="1" parent="1"><mxGeometry x="162" y="20914" width="47" height="47" as="geometry"/></mxCell><mxCell id="777" style="edgeStyle=none;rounded=0;sketch=1;orthogonalLoop=1;jettySize=auto;html=1;entryX=1;entryY=0;entryDx=0;entryDy=0;strokeColor=#050505;fontColor=#050505;exitX=0.5;exitY=1;exitDx=0;exitDy=0;" edge="1" source="786" target="782" parent="1"><mxGeometry relative="1" as="geometry"><mxPoint x="181.61700935788383" y="21078.882990642116" as="targetPoint"/><mxPoint x="253.88847915050405" y="21038.32018478795" as="sourcePoint"/></mxGeometry></mxCell><mxCell id="778" style="edgeStyle=none;rounded=0;sketch=1;orthogonalLoop=1;jettySize=auto;html=1;entryX=0;entryY=0;entryDx=0;entryDy=0;strokeColor=#050505;fontColor=#050505;exitX=1;exitY=1;exitDx=0;exitDy=0;" edge="1" source="786" target="783" parent="1"><mxGeometry relative="1" as="geometry"><mxPoint x="274.28615837370535" y="21033.765254461636" as="sourcePoint"/></mxGeometry></mxCell><mxCell id="779" style="edgeStyle=none;rounded=0;sketch=1;orthogonalLoop=1;jettySize=auto;html=1;entryX=1;entryY=0;entryDx=0;entryDy=0;strokeColor=#050505;fontColor=#050505;" edge="1" source="781" target="784" parent="1"><mxGeometry relative="1" as="geometry"/></mxCell><mxCell id="780" style="edgeStyle=none;rounded=0;sketch=1;orthogonalLoop=1;jettySize=auto;html=1;entryX=0;entryY=0;entryDx=0;entryDy=0;strokeColor=#050505;fontColor=#050505;" edge="1" source="781" target="785" parent="1"><mxGeometry relative="1" as="geometry"/></mxCell><mxCell id="781" value="&lt;font style=&quot;font-size: 17px&quot;&gt;21&lt;/font&gt;" style="ellipse;whiteSpace=wrap;html=1;aspect=fixed;fillColor=#ffe6cc;strokeColor=#d79b00;sketch=1;fontStyle=1;fontColor=#000000;" vertex="1" parent="1"><mxGeometry x="84.5" y="20992" width="47" height="47" as="geometry"/></mxCell><mxCell id="782" value="&lt;font style=&quot;font-size: 17px&quot;&gt;52&lt;/font&gt;" style="ellipse;whiteSpace=wrap;html=1;aspect=fixed;fillColor=#dae8fc;strokeColor=#6c8ebf;sketch=1;fontColor=#000000;fontStyle=1" vertex="1" parent="1"><mxGeometry x="204" y="21070" width="47" height="47" as="geometry"/></mxCell><mxCell id="783" value="&lt;font style=&quot;font-size: 17px&quot;&gt;82&lt;/font&gt;" style="ellipse;whiteSpace=wrap;html=1;aspect=fixed;fillColor=#dae8fc;strokeColor=#6c8ebf;sketch=1;fontStyle=1;fontColor=#050505;" vertex="1" parent="1"><mxGeometry x="304.5" y="21072" width="47" height="47" as="geometry"/></mxCell><mxCell id="784" value="&lt;font style=&quot;font-size: 17px&quot;&gt;18&lt;/font&gt;" style="ellipse;whiteSpace=wrap;html=1;aspect=fixed;fillColor=#ffe6cc;strokeColor=#d79b00;sketch=1;fontStyle=1;fontColor=#000000;" vertex="1" parent="1"><mxGeometry x="11" y="21070" width="47" height="47" as="geometry"/></mxCell><mxCell id="785" value="&lt;font style=&quot;font-size: 17px&quot;&gt;27&lt;/font&gt;" style="ellipse;whiteSpace=wrap;html=1;aspect=fixed;fillColor=#ffe6cc;strokeColor=#d79b00;sketch=1;fontStyle=1;fontColor=#000000;" vertex="1" parent="1"><mxGeometry x="109.5" y="21070" width="47" height="47" as="geometry"/></mxCell><mxCell id="786" value="&lt;font style=&quot;font-size: 17px&quot;&gt;76&lt;/font&gt;" style="ellipse;whiteSpace=wrap;html=1;aspect=fixed;fillColor=#ffe6cc;strokeColor=#d79b00;sketch=1;fontStyle=1;fontColor=#000000;" vertex="1" parent="1"><mxGeometry x="234" y="20992" width="47" height="47" as="geometry"/></mxCell><mxCell id="787" value="queue: [&amp;nbsp; &amp;nbsp; ,&amp;nbsp; &amp;nbsp; ,&amp;nbsp; &amp;nbsp;]" style="text;html=1;strokeColor=none;fillColor=none;align=left;verticalAlign=middle;whiteSpace=wrap;rounded=0;fontColor=#000000;fontSize=16;fontFamily=Courier New;" vertex="1" parent="1"><mxGeometry x="304.5" y="20927.5" width="276.5" height="20" as="geometry"/></mxCell><mxCell id="788" value="results: [&lt;b&gt;&lt;font color=&quot;#006600&quot;&gt;47&lt;/font&gt;&lt;/b&gt;,&amp;nbsp;&lt;b&gt;&lt;font color=&quot;#006600&quot;&gt;21&lt;/font&gt;&lt;/b&gt;]" style="text;html=1;strokeColor=none;fillColor=none;align=left;verticalAlign=middle;whiteSpace=wrap;rounded=0;fontColor=#000000;fontSize=16;fontFamily=Courier New;" vertex="1" parent="1"><mxGeometry x="304.5" y="20994" width="228.5" height="20" as="geometry"/></mxCell><mxCell id="790" value="&lt;font style=&quot;font-size: 11px&quot;&gt;76&lt;/font&gt;" style="ellipse;whiteSpace=wrap;html=1;aspect=fixed;fillColor=#ffe6cc;strokeColor=#d79b00;sketch=1;fontStyle=1;fontColor=#000000;fontSize=11;" vertex="1" parent="1"><mxGeometry x="392.75" y="20923.5" width="28" height="28" as="geometry"/></mxCell><mxCell id="796" value="&lt;font style=&quot;font-size: 11px&quot;&gt;18&lt;/font&gt;" style="ellipse;whiteSpace=wrap;html=1;aspect=fixed;fillColor=#ffe6cc;strokeColor=#d79b00;sketch=1;fontStyle=1;fontColor=#000000;fontSize=11;" vertex="1" parent="1"><mxGeometry x="440" y="20923.5" width="28" height="28" as="geometry"/></mxCell><mxCell id="797" value="&lt;font style=&quot;font-size: 11px&quot;&gt;27&lt;/font&gt;" style="ellipse;whiteSpace=wrap;html=1;aspect=fixed;fillColor=#ffe6cc;strokeColor=#d79b00;sketch=1;fontStyle=1;fontColor=#000000;fontSize=11;" vertex="1" parent="1"><mxGeometry x="487" y="20923.5" width="28" height="28" as="geometry"/></mxCell><mxCell id="798" style="edgeStyle=none;rounded=0;sketch=1;orthogonalLoop=1;jettySize=auto;html=1;fontColor=#050505;entryX=0;entryY=0;entryDx=0;entryDy=0;strokeColor=#000000;" edge="1" source="800" target="810" parent="1"><mxGeometry relative="1" as="geometry"><mxPoint x="242.88299064211628" y="21300.882990642116" as="targetPoint"/></mxGeometry></mxCell><mxCell id="799" style="edgeStyle=none;rounded=0;sketch=1;orthogonalLoop=1;jettySize=auto;html=1;entryX=1;entryY=0;entryDx=0;entryDy=0;fontColor=#050505;strokeColor=#000000;" edge="1" source="800" target="805" parent="1"><mxGeometry relative="1" as="geometry"/></mxCell><mxCell id="800" value="&lt;font style=&quot;font-size: 17px&quot;&gt;47&lt;/font&gt;" style="ellipse;whiteSpace=wrap;html=1;aspect=fixed;fillColor=#ffe6cc;strokeColor=#d79b00;sketch=1;fontStyle=1;fontColor=#000000;" vertex="1" parent="1"><mxGeometry x="162" y="21216" width="47" height="47" as="geometry"/></mxCell><mxCell id="801" style="edgeStyle=none;rounded=0;sketch=1;orthogonalLoop=1;jettySize=auto;html=1;entryX=1;entryY=0;entryDx=0;entryDy=0;strokeColor=#050505;fontColor=#050505;exitX=0.5;exitY=1;exitDx=0;exitDy=0;" edge="1" source="810" target="806" parent="1"><mxGeometry relative="1" as="geometry"><mxPoint x="181.61700935788383" y="21380.882990642116" as="targetPoint"/><mxPoint x="253.88847915050405" y="21340.32018478795" as="sourcePoint"/></mxGeometry></mxCell><mxCell id="802" style="edgeStyle=none;rounded=0;sketch=1;orthogonalLoop=1;jettySize=auto;html=1;entryX=0;entryY=0;entryDx=0;entryDy=0;strokeColor=#050505;fontColor=#050505;exitX=1;exitY=1;exitDx=0;exitDy=0;" edge="1" source="810" target="807" parent="1"><mxGeometry relative="1" as="geometry"><mxPoint x="274.28615837370535" y="21335.765254461636" as="sourcePoint"/></mxGeometry></mxCell><mxCell id="803" style="edgeStyle=none;rounded=0;sketch=1;orthogonalLoop=1;jettySize=auto;html=1;entryX=1;entryY=0;entryDx=0;entryDy=0;strokeColor=#050505;fontColor=#050505;" edge="1" source="805" target="808" parent="1"><mxGeometry relative="1" as="geometry"/></mxCell><mxCell id="804" style="edgeStyle=none;rounded=0;sketch=1;orthogonalLoop=1;jettySize=auto;html=1;entryX=0;entryY=0;entryDx=0;entryDy=0;strokeColor=#050505;fontColor=#050505;" edge="1" source="805" target="809" parent="1"><mxGeometry relative="1" as="geometry"/></mxCell><mxCell id="805" value="&lt;font style=&quot;font-size: 17px&quot;&gt;21&lt;/font&gt;" style="ellipse;whiteSpace=wrap;html=1;aspect=fixed;fillColor=#ffe6cc;strokeColor=#d79b00;sketch=1;fontStyle=1;fontColor=#000000;" vertex="1" parent="1"><mxGeometry x="84.5" y="21294" width="47" height="47" as="geometry"/></mxCell><mxCell id="806" value="&lt;font style=&quot;font-size: 17px&quot;&gt;52&lt;/font&gt;" style="ellipse;whiteSpace=wrap;html=1;aspect=fixed;fillColor=#dae8fc;strokeColor=#6c8ebf;sketch=1;fontColor=#000000;fontStyle=1" vertex="1" parent="1"><mxGeometry x="204" y="21372" width="47" height="47" as="geometry"/></mxCell><mxCell id="807" value="&lt;font style=&quot;font-size: 17px&quot;&gt;82&lt;/font&gt;" style="ellipse;whiteSpace=wrap;html=1;aspect=fixed;fillColor=#dae8fc;strokeColor=#6c8ebf;sketch=1;fontStyle=1;fontColor=#050505;" vertex="1" parent="1"><mxGeometry x="304.5" y="21374" width="47" height="47" as="geometry"/></mxCell><mxCell id="808" value="&lt;font style=&quot;font-size: 17px&quot;&gt;18&lt;/font&gt;" style="ellipse;whiteSpace=wrap;html=1;aspect=fixed;fillColor=#ffe6cc;strokeColor=#d79b00;sketch=1;fontStyle=1;fontColor=#000000;" vertex="1" parent="1"><mxGeometry x="11" y="21372" width="47" height="47" as="geometry"/></mxCell><mxCell id="809" value="&lt;font style=&quot;font-size: 17px&quot;&gt;27&lt;/font&gt;" style="ellipse;whiteSpace=wrap;html=1;aspect=fixed;fillColor=#ffe6cc;strokeColor=#d79b00;sketch=1;fontStyle=1;fontColor=#000000;" vertex="1" parent="1"><mxGeometry x="109.5" y="21372" width="47" height="47" as="geometry"/></mxCell><mxCell id="810" value="&lt;font style=&quot;font-size: 17px&quot;&gt;76&lt;/font&gt;" style="ellipse;whiteSpace=wrap;html=1;aspect=fixed;fillColor=#ffe6cc;strokeColor=#d79b00;sketch=1;fontStyle=1;fontColor=#000000;" vertex="1" parent="1"><mxGeometry x="234" y="21294" width="47" height="47" as="geometry"/></mxCell><mxCell id="811" value="queue: [&amp;nbsp; &amp;nbsp; ,&amp;nbsp; &amp;nbsp; ,&amp;nbsp; &amp;nbsp;]" style="text;html=1;strokeColor=none;fillColor=none;align=left;verticalAlign=middle;whiteSpace=wrap;rounded=0;fontColor=#000000;fontSize=16;fontFamily=Courier New;" vertex="1" parent="1"><mxGeometry x="304.5" y="21229.5" width="276.5" height="20" as="geometry"/></mxCell><mxCell id="812" value="results: [&lt;b&gt;&lt;font color=&quot;#006600&quot;&gt;47&lt;/font&gt;&lt;/b&gt;,&amp;nbsp;&lt;b&gt;&lt;font color=&quot;#006600&quot;&gt;21&lt;/font&gt;&lt;/b&gt;, &lt;font color=&quot;#006600&quot;&gt;&lt;b&gt;76&lt;/b&gt;&lt;/font&gt;]" style="text;html=1;strokeColor=none;fillColor=none;align=left;verticalAlign=middle;whiteSpace=wrap;rounded=0;fontColor=#000000;fontSize=16;fontFamily=Courier New;" vertex="1" parent="1"><mxGeometry x="304.5" y="21296" width="228.5" height="20" as="geometry"/></mxCell><mxCell id="813" value="&lt;font style=&quot;font-size: 11px&quot;&gt;76&lt;/font&gt;" style="ellipse;whiteSpace=wrap;html=1;aspect=fixed;fillColor=#f5f5f5;strokeColor=#666666;sketch=1;fontStyle=1;fontColor=#333333;fontSize=11;opacity=30;textOpacity=30;" vertex="1" parent="1"><mxGeometry x="392.75" y="21225.5" width="28" height="28" as="geometry"/></mxCell><mxCell id="814" value="&lt;font style=&quot;font-size: 11px&quot;&gt;18&lt;/font&gt;" style="ellipse;whiteSpace=wrap;html=1;aspect=fixed;fillColor=#ffe6cc;strokeColor=#d79b00;sketch=1;fontStyle=1;fontColor=#000000;fontSize=11;" vertex="1" parent="1"><mxGeometry x="440" y="21225.5" width="28" height="28" as="geometry"/></mxCell><mxCell id="815" value="&lt;font style=&quot;font-size: 11px&quot;&gt;27&lt;/font&gt;" style="ellipse;whiteSpace=wrap;html=1;aspect=fixed;fillColor=#ffe6cc;strokeColor=#d79b00;sketch=1;fontStyle=1;fontColor=#000000;fontSize=11;" vertex="1" parent="1"><mxGeometry x="487" y="21225.5" width="28" height="28" as="geometry"/></mxCell><mxCell id="816" value="dequeue" style="text;html=1;align=center;verticalAlign=middle;resizable=0;points=[];autosize=1;fontSize=11;fontFamily=Courier New;fontColor=#000000;fontStyle=1" vertex="1" parent="1"><mxGeometry x="444.75" y="21172" width="59" height="17" as="geometry"/></mxCell><mxCell id="817" style="edgeStyle=orthogonalEdgeStyle;rounded=0;orthogonalLoop=1;jettySize=auto;html=1;entryX=0.5;entryY=0;entryDx=0;entryDy=0;fontFamily=Courier New;fontSize=11;fontColor=#000000;strokeColor=#666666;curved=1;sketch=1;exitX=0.5;exitY=0;exitDx=0;exitDy=0;fillColor=#f5f5f5;" edge="1" target="818" parent="1" source="813"><mxGeometry relative="1" as="geometry"><mxPoint x="466.95899999999983" y="21212.28" as="sourcePoint"/><Array as="points"><mxPoint x="407" y="21192"/><mxPoint x="554" y="21192"/></Array></mxGeometry></mxCell><mxCell id="818" value="&lt;font style=&quot;font-size: 11px&quot;&gt;76&lt;/font&gt;" style="ellipse;whiteSpace=wrap;html=1;aspect=fixed;fillColor=#f5f5f5;strokeColor=#666666;sketch=1;fontStyle=1;fontColor=#333333;fontSize=11;" vertex="1" parent="1"><mxGeometry x="540" y="21260" width="28" height="28" as="geometry"/></mxCell><mxCell id="819" value="&lt;font color=&quot;#006600&quot;&gt;&lt;b&gt;node.value&lt;/b&gt;&lt;/font&gt;" style="text;html=1;align=center;verticalAlign=middle;resizable=0;points=[];autosize=1;fontSize=11;fontFamily=Courier New;fontColor=#000000;rotation=-15;fontStyle=0" vertex="1" parent="1"><mxGeometry x="463" y="21263" width="80" height="17" as="geometry"/></mxCell><mxCell id="820" style="edgeStyle=orthogonalEdgeStyle;curved=1;rounded=0;sketch=1;orthogonalLoop=1;jettySize=auto;html=1;strokeColor=#666666;fontFamily=Courier New;fontSize=11;fontColor=#000000;exitX=0;exitY=0.5;exitDx=0;exitDy=0;fillColor=#f5f5f5;entryX=0.866;entryY=0.01;entryDx=0;entryDy=0;entryPerimeter=0;" edge="1" source="818" parent="1" target="812"><mxGeometry relative="1" as="geometry"><mxPoint x="501" y="21291" as="targetPoint"/><Array as="points"><mxPoint x="502" y="21274"/><mxPoint x="502" y="21291"/></Array></mxGeometry></mxCell><mxCell id="821" style="edgeStyle=none;rounded=0;sketch=1;orthogonalLoop=1;jettySize=auto;html=1;fontColor=#050505;entryX=0;entryY=0;entryDx=0;entryDy=0;strokeColor=#000000;" edge="1" source="823" target="833" parent="1"><mxGeometry relative="1" as="geometry"><mxPoint x="240.38299064211628" y="21592.882990642116" as="targetPoint"/></mxGeometry></mxCell><mxCell id="822" style="edgeStyle=none;rounded=0;sketch=1;orthogonalLoop=1;jettySize=auto;html=1;entryX=1;entryY=0;entryDx=0;entryDy=0;fontColor=#050505;strokeColor=#000000;" edge="1" source="823" target="828" parent="1"><mxGeometry relative="1" as="geometry"/></mxCell><mxCell id="823" value="&lt;font style=&quot;font-size: 17px&quot;&gt;47&lt;/font&gt;" style="ellipse;whiteSpace=wrap;html=1;aspect=fixed;fillColor=#ffe6cc;strokeColor=#d79b00;sketch=1;fontStyle=1;fontColor=#000000;" vertex="1" parent="1"><mxGeometry x="159.5" y="21508" width="47" height="47" as="geometry"/></mxCell><mxCell id="824" style="edgeStyle=none;rounded=0;sketch=1;orthogonalLoop=1;jettySize=auto;html=1;entryX=1;entryY=0;entryDx=0;entryDy=0;strokeColor=#050505;fontColor=#050505;exitX=0.5;exitY=1;exitDx=0;exitDy=0;" edge="1" source="833" target="829" parent="1"><mxGeometry relative="1" as="geometry"><mxPoint x="179.11700935788383" y="21672.882990642116" as="targetPoint"/><mxPoint x="251.38847915050405" y="21632.32018478795" as="sourcePoint"/></mxGeometry></mxCell><mxCell id="825" style="edgeStyle=none;rounded=0;sketch=1;orthogonalLoop=1;jettySize=auto;html=1;entryX=0;entryY=0;entryDx=0;entryDy=0;strokeColor=#050505;fontColor=#050505;exitX=1;exitY=1;exitDx=0;exitDy=0;" edge="1" source="833" target="830" parent="1"><mxGeometry relative="1" as="geometry"><mxPoint x="271.78615837370535" y="21627.765254461636" as="sourcePoint"/></mxGeometry></mxCell><mxCell id="826" style="edgeStyle=none;rounded=0;sketch=1;orthogonalLoop=1;jettySize=auto;html=1;entryX=1;entryY=0;entryDx=0;entryDy=0;strokeColor=#050505;fontColor=#050505;" edge="1" source="828" target="831" parent="1"><mxGeometry relative="1" as="geometry"/></mxCell><mxCell id="827" style="edgeStyle=none;rounded=0;sketch=1;orthogonalLoop=1;jettySize=auto;html=1;entryX=0;entryY=0;entryDx=0;entryDy=0;strokeColor=#050505;fontColor=#050505;" edge="1" source="828" target="832" parent="1"><mxGeometry relative="1" as="geometry"/></mxCell><mxCell id="828" value="&lt;font style=&quot;font-size: 17px&quot;&gt;21&lt;/font&gt;" style="ellipse;whiteSpace=wrap;html=1;aspect=fixed;fillColor=#ffe6cc;strokeColor=#d79b00;sketch=1;fontStyle=1;fontColor=#000000;" vertex="1" parent="1"><mxGeometry x="82" y="21586" width="47" height="47" as="geometry"/></mxCell><mxCell id="829" value="&lt;font style=&quot;font-size: 17px&quot;&gt;52&lt;/font&gt;" style="ellipse;whiteSpace=wrap;html=1;aspect=fixed;fillColor=#ffe6cc;strokeColor=#d79b00;sketch=1;fontStyle=1;fontColor=#000000;" vertex="1" parent="1"><mxGeometry x="201.5" y="21664" width="47" height="47" as="geometry"/></mxCell><mxCell id="830" value="&lt;font style=&quot;font-size: 17px&quot;&gt;82&lt;/font&gt;" style="ellipse;whiteSpace=wrap;html=1;aspect=fixed;fillColor=#ffe6cc;strokeColor=#d79b00;sketch=1;fontStyle=1;labelBackgroundColor=none;fontColor=#000000;" vertex="1" parent="1"><mxGeometry x="302" y="21666" width="47" height="47" as="geometry"/></mxCell><mxCell id="831" value="&lt;font style=&quot;font-size: 17px&quot;&gt;18&lt;/font&gt;" style="ellipse;whiteSpace=wrap;html=1;aspect=fixed;fillColor=#ffe6cc;strokeColor=#d79b00;sketch=1;fontStyle=1;fontColor=#000000;" vertex="1" parent="1"><mxGeometry x="8.5" y="21664" width="47" height="47" as="geometry"/></mxCell><mxCell id="832" value="&lt;font style=&quot;font-size: 17px&quot;&gt;27&lt;/font&gt;" style="ellipse;whiteSpace=wrap;html=1;aspect=fixed;fillColor=#ffe6cc;strokeColor=#d79b00;sketch=1;fontStyle=1;fontColor=#000000;" vertex="1" parent="1"><mxGeometry x="107" y="21664" width="47" height="47" as="geometry"/></mxCell><mxCell id="833" value="&lt;font style=&quot;font-size: 17px&quot;&gt;76&lt;/font&gt;" style="ellipse;whiteSpace=wrap;html=1;aspect=fixed;fillColor=#ffe6cc;strokeColor=#d79b00;sketch=1;fontStyle=1;fontColor=#000000;" vertex="1" parent="1"><mxGeometry x="231.5" y="21586" width="47" height="47" as="geometry"/></mxCell><mxCell id="834" value="queue: [&amp;nbsp; &amp;nbsp; ,&amp;nbsp; &amp;nbsp;,&amp;nbsp; &amp;nbsp;,&amp;nbsp; &amp;nbsp;]" style="text;html=1;strokeColor=none;fillColor=none;align=left;verticalAlign=middle;whiteSpace=wrap;rounded=0;fontColor=#000000;fontSize=16;fontFamily=Courier New;" vertex="1" parent="1"><mxGeometry x="302" y="21521.5" width="276.5" height="20" as="geometry"/></mxCell><mxCell id="835" value="results: [&lt;b&gt;&lt;font color=&quot;#006600&quot;&gt;47&lt;/font&gt;&lt;/b&gt;,&amp;nbsp;&lt;b&gt;&lt;font color=&quot;#006600&quot;&gt;21&lt;/font&gt;&lt;/b&gt;, &lt;font color=&quot;#006600&quot;&gt;&lt;b&gt;76&lt;/b&gt;&lt;/font&gt;]" style="text;html=1;strokeColor=none;fillColor=none;align=left;verticalAlign=middle;whiteSpace=wrap;rounded=0;fontColor=#000000;fontSize=16;fontFamily=Courier New;" vertex="1" parent="1"><mxGeometry x="302" y="21588" width="228.5" height="20" as="geometry"/></mxCell><mxCell id="837" value="&lt;font style=&quot;font-size: 11px&quot;&gt;18&lt;/font&gt;" style="ellipse;whiteSpace=wrap;html=1;aspect=fixed;fillColor=#ffe6cc;strokeColor=#d79b00;sketch=1;fontStyle=1;fontColor=#000000;fontSize=11;" vertex="1" parent="1"><mxGeometry x="387" y="21513.5" width="28" height="28" as="geometry"/></mxCell><mxCell id="838" value="&lt;font style=&quot;font-size: 11px&quot;&gt;27&lt;/font&gt;" style="ellipse;whiteSpace=wrap;html=1;aspect=fixed;fillColor=#ffe6cc;strokeColor=#d79b00;sketch=1;fontStyle=1;fontColor=#000000;fontSize=11;" vertex="1" parent="1"><mxGeometry x="434" y="21513.5" width="28" height="28" as="geometry"/></mxCell><mxCell id="844" value="&lt;font style=&quot;font-size: 11px&quot;&gt;52&lt;/font&gt;" style="ellipse;whiteSpace=wrap;html=1;aspect=fixed;fillColor=#ffe6cc;strokeColor=#d79b00;sketch=1;fontStyle=1;fontColor=#000000;fontSize=11;" vertex="1" parent="1"><mxGeometry x="475" y="21513.5" width="28" height="28" as="geometry"/></mxCell><mxCell id="845" value="&lt;font style=&quot;font-size: 11px&quot;&gt;82&lt;/font&gt;" style="ellipse;whiteSpace=wrap;html=1;aspect=fixed;fillColor=#ffe6cc;strokeColor=#d79b00;sketch=1;fontStyle=1;fontColor=#000000;fontSize=11;" vertex="1" parent="1"><mxGeometry x="515" y="21513.5" width="28" height="28" as="geometry"/></mxCell><mxCell id="846" style="edgeStyle=none;rounded=0;sketch=1;orthogonalLoop=1;jettySize=auto;html=1;fontColor=#050505;entryX=0;entryY=0;entryDx=0;entryDy=0;strokeColor=#000000;" edge="1" source="848" target="858" parent="1"><mxGeometry relative="1" as="geometry"><mxPoint x="242.88299064211628" y="21848.882990642116" as="targetPoint"/></mxGeometry></mxCell><mxCell id="847" style="edgeStyle=none;rounded=0;sketch=1;orthogonalLoop=1;jettySize=auto;html=1;entryX=1;entryY=0;entryDx=0;entryDy=0;fontColor=#050505;strokeColor=#000000;" edge="1" source="848" target="853" parent="1"><mxGeometry relative="1" as="geometry"/></mxCell><mxCell id="848" value="&lt;font style=&quot;font-size: 17px&quot;&gt;47&lt;/font&gt;" style="ellipse;whiteSpace=wrap;html=1;aspect=fixed;fillColor=#ffe6cc;strokeColor=#d79b00;sketch=1;fontStyle=1;fontColor=#000000;" vertex="1" parent="1"><mxGeometry x="162" y="21764" width="47" height="47" as="geometry"/></mxCell><mxCell id="849" style="edgeStyle=none;rounded=0;sketch=1;orthogonalLoop=1;jettySize=auto;html=1;entryX=1;entryY=0;entryDx=0;entryDy=0;strokeColor=#050505;fontColor=#050505;exitX=0.5;exitY=1;exitDx=0;exitDy=0;" edge="1" source="858" target="854" parent="1"><mxGeometry relative="1" as="geometry"><mxPoint x="181.61700935788383" y="21928.882990642116" as="targetPoint"/><mxPoint x="253.88847915050405" y="21888.32018478795" as="sourcePoint"/></mxGeometry></mxCell><mxCell id="850" style="edgeStyle=none;rounded=0;sketch=1;orthogonalLoop=1;jettySize=auto;html=1;entryX=0;entryY=0;entryDx=0;entryDy=0;strokeColor=#050505;fontColor=#050505;exitX=1;exitY=1;exitDx=0;exitDy=0;" edge="1" source="858" target="855" parent="1"><mxGeometry relative="1" as="geometry"><mxPoint x="274.28615837370535" y="21883.765254461636" as="sourcePoint"/></mxGeometry></mxCell><mxCell id="851" style="edgeStyle=none;rounded=0;sketch=1;orthogonalLoop=1;jettySize=auto;html=1;entryX=1;entryY=0;entryDx=0;entryDy=0;strokeColor=#050505;fontColor=#050505;" edge="1" source="853" target="856" parent="1"><mxGeometry relative="1" as="geometry"/></mxCell><mxCell id="852" style="edgeStyle=none;rounded=0;sketch=1;orthogonalLoop=1;jettySize=auto;html=1;entryX=0;entryY=0;entryDx=0;entryDy=0;strokeColor=#050505;fontColor=#050505;" edge="1" source="853" target="857" parent="1"><mxGeometry relative="1" as="geometry"/></mxCell><mxCell id="853" value="&lt;font style=&quot;font-size: 17px&quot;&gt;21&lt;/font&gt;" style="ellipse;whiteSpace=wrap;html=1;aspect=fixed;fillColor=#ffe6cc;strokeColor=#d79b00;sketch=1;fontStyle=1;fontColor=#000000;" vertex="1" parent="1"><mxGeometry x="84.5" y="21842" width="47" height="47" as="geometry"/></mxCell><mxCell id="854" value="&lt;font style=&quot;font-size: 17px&quot;&gt;52&lt;/font&gt;" style="ellipse;whiteSpace=wrap;html=1;aspect=fixed;fillColor=#ffe6cc;strokeColor=#d79b00;sketch=1;fontStyle=1;fontColor=#000000;" vertex="1" parent="1"><mxGeometry x="204" y="21920" width="47" height="47" as="geometry"/></mxCell><mxCell id="855" value="&lt;font style=&quot;font-size: 17px&quot;&gt;82&lt;/font&gt;" style="ellipse;whiteSpace=wrap;html=1;aspect=fixed;fillColor=#ffe6cc;strokeColor=#d79b00;sketch=1;fontStyle=1;labelBackgroundColor=none;fontColor=#000000;" vertex="1" parent="1"><mxGeometry x="304.5" y="21922" width="47" height="47" as="geometry"/></mxCell><mxCell id="856" value="&lt;font style=&quot;font-size: 17px&quot;&gt;18&lt;/font&gt;" style="ellipse;whiteSpace=wrap;html=1;aspect=fixed;fillColor=#ffe6cc;strokeColor=#d79b00;sketch=1;fontStyle=1;fontColor=#000000;" vertex="1" parent="1"><mxGeometry x="11" y="21920" width="47" height="47" as="geometry"/></mxCell><mxCell id="857" value="&lt;font style=&quot;font-size: 17px&quot;&gt;27&lt;/font&gt;" style="ellipse;whiteSpace=wrap;html=1;aspect=fixed;fillColor=#ffe6cc;strokeColor=#d79b00;sketch=1;fontStyle=1;fontColor=#000000;" vertex="1" parent="1"><mxGeometry x="109.5" y="21920" width="47" height="47" as="geometry"/></mxCell><mxCell id="858" value="&lt;font style=&quot;font-size: 17px&quot;&gt;76&lt;/font&gt;" style="ellipse;whiteSpace=wrap;html=1;aspect=fixed;fillColor=#ffe6cc;strokeColor=#d79b00;sketch=1;fontStyle=1;fontColor=#000000;" vertex="1" parent="1"><mxGeometry x="234" y="21842" width="47" height="47" as="geometry"/></mxCell><mxCell id="859" value="results: [&lt;b&gt;&lt;font color=&quot;#006600&quot;&gt;47&lt;/font&gt;&lt;/b&gt;,&amp;nbsp;&lt;b&gt;&lt;font color=&quot;#006600&quot;&gt;21&lt;/font&gt;&lt;/b&gt;, &lt;font color=&quot;#006600&quot;&gt;&lt;b&gt;76&lt;/b&gt;&lt;/font&gt;,&amp;nbsp;&lt;font color=&quot;#006600&quot;&gt;&lt;b&gt;18&lt;/b&gt;&lt;/font&gt;]" style="text;html=1;strokeColor=none;fillColor=none;align=left;verticalAlign=middle;whiteSpace=wrap;rounded=0;fontColor=#000000;fontSize=16;fontFamily=Courier New;" vertex="1" parent="1"><mxGeometry x="304.5" y="21844" width="271.5" height="20" as="geometry"/></mxCell><mxCell id="860" value="&lt;font style=&quot;font-size: 11px&quot;&gt;18&lt;/font&gt;" style="ellipse;whiteSpace=wrap;html=1;aspect=fixed;fillColor=#f5f5f5;strokeColor=#666666;sketch=1;fontStyle=1;fontColor=#333333;fontSize=11;textOpacity=30;opacity=30;" vertex="1" parent="1"><mxGeometry x="389.5" y="21769.5" width="28" height="28" as="geometry"/></mxCell><mxCell id="861" value="&lt;font style=&quot;font-size: 11px&quot;&gt;27&lt;/font&gt;" style="ellipse;whiteSpace=wrap;html=1;aspect=fixed;fillColor=#ffe6cc;strokeColor=#d79b00;sketch=1;fontStyle=1;fontColor=#000000;fontSize=11;" vertex="1" parent="1"><mxGeometry x="436.5" y="21769.5" width="28" height="28" as="geometry"/></mxCell><mxCell id="862" value="&lt;font style=&quot;font-size: 11px&quot;&gt;52&lt;/font&gt;" style="ellipse;whiteSpace=wrap;html=1;aspect=fixed;fillColor=#ffe6cc;strokeColor=#d79b00;sketch=1;fontStyle=1;fontColor=#000000;fontSize=11;" vertex="1" parent="1"><mxGeometry x="477.5" y="21769.5" width="28" height="28" as="geometry"/></mxCell><mxCell id="863" value="&lt;font style=&quot;font-size: 11px&quot;&gt;82&lt;/font&gt;" style="ellipse;whiteSpace=wrap;html=1;aspect=fixed;fillColor=#ffe6cc;strokeColor=#d79b00;sketch=1;fontStyle=1;fontColor=#000000;fontSize=11;" vertex="1" parent="1"><mxGeometry x="517.5" y="21769.5" width="28" height="28" as="geometry"/></mxCell><mxCell id="864" style="edgeStyle=orthogonalEdgeStyle;rounded=0;orthogonalLoop=1;jettySize=auto;html=1;entryX=0.5;entryY=0;entryDx=0;entryDy=0;fontFamily=Courier New;fontSize=11;fontColor=#000000;strokeColor=#666666;curved=1;sketch=1;exitX=0.5;exitY=0;exitDx=0;exitDy=0;fillColor=#f5f5f5;" edge="1" target="867" parent="1" source="860"><mxGeometry relative="1" as="geometry"><mxPoint x="440" y="21773.3" as="sourcePoint"/><Array as="points"><mxPoint x="404" y="21740"/><mxPoint x="587" y="21740"/></Array></mxGeometry></mxCell><mxCell id="865" value="dequeue" style="text;html=1;align=center;verticalAlign=middle;resizable=0;points=[];autosize=1;fontSize=11;fontFamily=Courier New;fontColor=#000000;fontStyle=1" vertex="1" parent="1"><mxGeometry x="462" y="21721" width="59" height="17" as="geometry"/></mxCell><mxCell id="866" value="&lt;font color=&quot;#006600&quot;&gt;&lt;b&gt;node.value&lt;/b&gt;&lt;/font&gt;" style="text;html=1;align=center;verticalAlign=middle;resizable=0;points=[];autosize=1;fontSize=11;fontFamily=Courier New;fontColor=#000000;rotation=-15;fontStyle=0" vertex="1" parent="1"><mxGeometry x="496.25" y="21810.8" width="80" height="17" as="geometry"/></mxCell><mxCell id="867" value="&lt;font style=&quot;font-size: 11px&quot;&gt;18&lt;/font&gt;" style="ellipse;whiteSpace=wrap;html=1;aspect=fixed;fillColor=#f5f5f5;strokeColor=#666666;sketch=1;fontStyle=1;fontColor=#333333;fontSize=11;" vertex="1" parent="1"><mxGeometry x="573.25" y="21807.8" width="28" height="28" as="geometry"/></mxCell><mxCell id="868" style="edgeStyle=orthogonalEdgeStyle;curved=1;rounded=0;sketch=1;orthogonalLoop=1;jettySize=auto;html=1;strokeColor=#666666;fontFamily=Courier New;fontSize=11;fontColor=#000000;exitX=0;exitY=0.5;exitDx=0;exitDy=0;fillColor=#f5f5f5;entryX=0.866;entryY=0.01;entryDx=0;entryDy=0;entryPerimeter=0;" edge="1" source="867" parent="1"><mxGeometry relative="1" as="geometry"><mxPoint x="535.6310000000001" y="21844" as="targetPoint"/><Array as="points"><mxPoint x="535.25" y="21821.8"/><mxPoint x="535.25" y="21838.8"/></Array></mxGeometry></mxCell><mxCell id="869" style="edgeStyle=none;rounded=0;sketch=1;orthogonalLoop=1;jettySize=auto;html=1;fontColor=#050505;entryX=0;entryY=0;entryDx=0;entryDy=0;strokeColor=#000000;" edge="1" source="871" target="881" parent="1"><mxGeometry relative="1" as="geometry"><mxPoint x="240.38299064211628" y="22158.882990642116" as="targetPoint"/></mxGeometry></mxCell><mxCell id="870" style="edgeStyle=none;rounded=0;sketch=1;orthogonalLoop=1;jettySize=auto;html=1;entryX=1;entryY=0;entryDx=0;entryDy=0;fontColor=#050505;strokeColor=#000000;" edge="1" source="871" target="876" parent="1"><mxGeometry relative="1" as="geometry"/></mxCell><mxCell id="871" value="&lt;font style=&quot;font-size: 17px&quot;&gt;47&lt;/font&gt;" style="ellipse;whiteSpace=wrap;html=1;aspect=fixed;fillColor=#ffe6cc;strokeColor=#d79b00;sketch=1;fontStyle=1;fontColor=#000000;" vertex="1" parent="1"><mxGeometry x="159.5" y="22074" width="47" height="47" as="geometry"/></mxCell><mxCell id="872" style="edgeStyle=none;rounded=0;sketch=1;orthogonalLoop=1;jettySize=auto;html=1;entryX=1;entryY=0;entryDx=0;entryDy=0;strokeColor=#050505;fontColor=#050505;exitX=0.5;exitY=1;exitDx=0;exitDy=0;" edge="1" source="881" target="877" parent="1"><mxGeometry relative="1" as="geometry"><mxPoint x="179.11700935788383" y="22238.882990642116" as="targetPoint"/><mxPoint x="251.38847915050405" y="22198.32018478795" as="sourcePoint"/></mxGeometry></mxCell><mxCell id="873" style="edgeStyle=none;rounded=0;sketch=1;orthogonalLoop=1;jettySize=auto;html=1;entryX=0;entryY=0;entryDx=0;entryDy=0;strokeColor=#050505;fontColor=#050505;exitX=1;exitY=1;exitDx=0;exitDy=0;" edge="1" source="881" target="878" parent="1"><mxGeometry relative="1" as="geometry"><mxPoint x="271.78615837370535" y="22193.765254461636" as="sourcePoint"/></mxGeometry></mxCell><mxCell id="874" style="edgeStyle=none;rounded=0;sketch=1;orthogonalLoop=1;jettySize=auto;html=1;entryX=1;entryY=0;entryDx=0;entryDy=0;strokeColor=#050505;fontColor=#050505;" edge="1" source="876" target="879" parent="1"><mxGeometry relative="1" as="geometry"/></mxCell><mxCell id="875" style="edgeStyle=none;rounded=0;sketch=1;orthogonalLoop=1;jettySize=auto;html=1;entryX=0;entryY=0;entryDx=0;entryDy=0;strokeColor=#050505;fontColor=#050505;" edge="1" source="876" target="880" parent="1"><mxGeometry relative="1" as="geometry"/></mxCell><mxCell id="876" value="&lt;font style=&quot;font-size: 17px&quot;&gt;21&lt;/font&gt;" style="ellipse;whiteSpace=wrap;html=1;aspect=fixed;fillColor=#ffe6cc;strokeColor=#d79b00;sketch=1;fontStyle=1;fontColor=#000000;" vertex="1" parent="1"><mxGeometry x="82" y="22152" width="47" height="47" as="geometry"/></mxCell><mxCell id="877" value="&lt;font style=&quot;font-size: 17px&quot;&gt;52&lt;/font&gt;" style="ellipse;whiteSpace=wrap;html=1;aspect=fixed;fillColor=#ffe6cc;strokeColor=#d79b00;sketch=1;fontStyle=1;fontColor=#000000;" vertex="1" parent="1"><mxGeometry x="201.5" y="22230" width="47" height="47" as="geometry"/></mxCell><mxCell id="878" value="&lt;font style=&quot;font-size: 17px&quot;&gt;82&lt;/font&gt;" style="ellipse;whiteSpace=wrap;html=1;aspect=fixed;fillColor=#ffe6cc;strokeColor=#d79b00;sketch=1;fontStyle=1;labelBackgroundColor=none;fontColor=#000000;" vertex="1" parent="1"><mxGeometry x="302" y="22232" width="47" height="47" as="geometry"/></mxCell><mxCell id="879" value="&lt;font style=&quot;font-size: 17px&quot;&gt;18&lt;/font&gt;" style="ellipse;whiteSpace=wrap;html=1;aspect=fixed;fillColor=#ffe6cc;strokeColor=#d79b00;sketch=1;fontStyle=1;fontColor=#000000;" vertex="1" parent="1"><mxGeometry x="8.5" y="22230" width="47" height="47" as="geometry"/></mxCell><mxCell id="880" value="&lt;font style=&quot;font-size: 17px&quot;&gt;27&lt;/font&gt;" style="ellipse;whiteSpace=wrap;html=1;aspect=fixed;fillColor=#ffe6cc;strokeColor=#d79b00;sketch=1;fontStyle=1;fontColor=#000000;" vertex="1" parent="1"><mxGeometry x="107" y="22230" width="47" height="47" as="geometry"/></mxCell><mxCell id="881" value="&lt;font style=&quot;font-size: 17px&quot;&gt;76&lt;/font&gt;" style="ellipse;whiteSpace=wrap;html=1;aspect=fixed;fillColor=#ffe6cc;strokeColor=#d79b00;sketch=1;fontStyle=1;fontColor=#000000;" vertex="1" parent="1"><mxGeometry x="231.5" y="22152" width="47" height="47" as="geometry"/></mxCell><mxCell id="882" value="results: [&lt;b&gt;&lt;font color=&quot;#006600&quot;&gt;47&lt;/font&gt;&lt;/b&gt;,&amp;nbsp;&lt;b&gt;&lt;font color=&quot;#006600&quot;&gt;21&lt;/font&gt;&lt;/b&gt;, &lt;font color=&quot;#006600&quot;&gt;&lt;b&gt;76&lt;/b&gt;&lt;/font&gt;,&amp;nbsp;&lt;font color=&quot;#006600&quot;&gt;&lt;b&gt;18&lt;/b&gt;&lt;/font&gt;, &lt;font color=&quot;#006600&quot;&gt;&lt;b&gt;27&lt;/b&gt;&lt;/font&gt;,&amp;nbsp;&lt;font color=&quot;#006600&quot;&gt;&lt;b&gt;52&lt;/b&gt;&lt;/font&gt;, &lt;font color=&quot;#006600&quot;&gt;&lt;b&gt;82&lt;/b&gt;&lt;/font&gt;]" style="text;html=1;strokeColor=none;fillColor=none;align=left;verticalAlign=middle;whiteSpace=wrap;rounded=0;fontColor=#000000;fontSize=16;fontFamily=Courier New;" vertex="1" parent="1"><mxGeometry x="302" y="22154" width="397" height="20" as="geometry"/></mxCell><mxCell id="884" value="&lt;font style=&quot;font-size: 11px&quot;&gt;27&lt;/font&gt;" style="ellipse;whiteSpace=wrap;html=1;aspect=fixed;fillColor=#f5f5f5;strokeColor=#666666;sketch=1;fontStyle=1;fontColor=#333333;fontSize=11;opacity=30;textOpacity=30;" vertex="1" parent="1"><mxGeometry x="434" y="22079.5" width="28" height="28" as="geometry"/></mxCell><mxCell id="893" style="edgeStyle=orthogonalEdgeStyle;curved=1;rounded=0;sketch=1;orthogonalLoop=1;jettySize=auto;html=1;strokeColor=#666666;fontFamily=Courier New;fontSize=11;fontColor=#000000;entryX=0.536;entryY=-0.096;entryDx=0;entryDy=0;fillColor=#f5f5f5;entryPerimeter=0;" edge="1" parent="1" source="885" target="894"><mxGeometry relative="1" as="geometry"><mxPoint x="622" y="22118" as="targetPoint"/><Array as="points"><mxPoint x="489" y="22054"/><mxPoint x="630" y="22054"/></Array></mxGeometry></mxCell><mxCell id="885" value="&lt;font style=&quot;font-size: 11px&quot;&gt;52&lt;/font&gt;" style="ellipse;whiteSpace=wrap;html=1;aspect=fixed;fillColor=#f5f5f5;strokeColor=#666666;sketch=1;fontStyle=1;fontColor=#333333;fontSize=11;opacity=30;textOpacity=30;" vertex="1" parent="1"><mxGeometry x="475" y="22079.5" width="28" height="28" as="geometry"/></mxCell><mxCell id="896" style="edgeStyle=orthogonalEdgeStyle;curved=1;rounded=0;sketch=1;orthogonalLoop=1;jettySize=auto;html=1;entryX=0.5;entryY=0;entryDx=0;entryDy=0;strokeColor=#666666;fontFamily=Courier New;fontSize=11;fontColor=#000000;fillColor=#f5f5f5;" edge="1" parent="1" source="886" target="895"><mxGeometry relative="1" as="geometry"><Array as="points"><mxPoint x="529" y="22056"/><mxPoint x="670" y="22056"/></Array></mxGeometry></mxCell><mxCell id="886" value="&lt;font style=&quot;font-size: 11px&quot;&gt;82&lt;/font&gt;" style="ellipse;whiteSpace=wrap;html=1;aspect=fixed;fillColor=#f5f5f5;strokeColor=#666666;sketch=1;fontStyle=1;fontColor=#333333;fontSize=11;opacity=30;textOpacity=30;" vertex="1" parent="1"><mxGeometry x="515" y="22079.5" width="28" height="28" as="geometry"/></mxCell><mxCell id="887" style="edgeStyle=orthogonalEdgeStyle;rounded=0;orthogonalLoop=1;jettySize=auto;html=1;entryX=0.5;entryY=0;entryDx=0;entryDy=0;fontFamily=Courier New;fontSize=11;fontColor=#000000;strokeColor=#666666;curved=1;sketch=1;exitX=0.5;exitY=0;exitDx=0;exitDy=0;fillColor=#f5f5f5;" edge="1" source="884" target="890" parent="1"><mxGeometry relative="1" as="geometry"><mxPoint x="401" y="22079.5" as="sourcePoint"/><Array as="points"><mxPoint x="448" y="22050"/><mxPoint x="585" y="22050"/></Array></mxGeometry></mxCell><mxCell id="888" value="dequeue" style="text;html=1;align=center;verticalAlign=middle;resizable=0;points=[];autosize=1;fontSize=11;fontFamily=Courier New;fontColor=#000000;fontStyle=1" vertex="1" parent="1"><mxGeometry x="511.75" y="22031" width="59" height="17" as="geometry"/></mxCell><mxCell id="889" value="&lt;font color=&quot;#006600&quot;&gt;&lt;b&gt;node.value&lt;/b&gt;&lt;/font&gt;" style="text;html=1;align=center;verticalAlign=middle;resizable=0;points=[];autosize=1;fontSize=11;fontFamily=Courier New;fontColor=#000000;rotation=0;fontStyle=0" vertex="1" parent="1"><mxGeometry x="662" y="22135" width="80" height="17" as="geometry"/></mxCell><mxCell id="890" value="&lt;font style=&quot;font-size: 11px&quot;&gt;27&lt;/font&gt;" style="ellipse;whiteSpace=wrap;html=1;aspect=fixed;fillColor=#f5f5f5;strokeColor=#666666;sketch=1;fontStyle=1;fontColor=#333333;fontSize=11;" vertex="1" parent="1"><mxGeometry x="570.75" y="22107.5" width="28" height="28" as="geometry"/></mxCell><mxCell id="891" style="edgeStyle=orthogonalEdgeStyle;curved=1;rounded=0;sketch=1;orthogonalLoop=1;jettySize=auto;html=1;strokeColor=#666666;fontFamily=Courier New;fontSize=11;fontColor=#000000;exitX=0.296;exitY=0.941;exitDx=0;exitDy=0;fillColor=#f5f5f5;entryX=0.685;entryY=-0.031;entryDx=0;entryDy=0;entryPerimeter=0;exitPerimeter=0;" edge="1" source="890" parent="1" target="882"><mxGeometry relative="1" as="geometry"><mxPoint x="533.1310000000001" y="22154" as="targetPoint"/><Array as="points"><mxPoint x="574" y="22134"/></Array></mxGeometry></mxCell><mxCell id="897" style="edgeStyle=orthogonalEdgeStyle;curved=1;rounded=0;sketch=1;orthogonalLoop=1;jettySize=auto;html=1;entryX=0.785;entryY=-0.055;entryDx=0;entryDy=0;entryPerimeter=0;strokeColor=#666666;fontFamily=Courier New;fontSize=11;fontColor=#000000;fillColor=#f5f5f5;exitX=-0.025;exitY=0.638;exitDx=0;exitDy=0;exitPerimeter=0;" edge="1" parent="1" source="894" target="882"><mxGeometry relative="1" as="geometry"><Array as="points"><mxPoint x="614" y="22139"/><mxPoint x="614" y="22139"/></Array></mxGeometry></mxCell><mxCell id="894" value="&lt;font style=&quot;font-size: 11px&quot;&gt;52&lt;/font&gt;" style="ellipse;whiteSpace=wrap;html=1;aspect=fixed;fillColor=#f5f5f5;strokeColor=#666666;sketch=1;fontStyle=1;fontColor=#333333;fontSize=11;" vertex="1" parent="1"><mxGeometry x="615" y="22107.5" width="28" height="28" as="geometry"/></mxCell><mxCell id="898" style="edgeStyle=orthogonalEdgeStyle;curved=1;rounded=0;sketch=1;orthogonalLoop=1;jettySize=auto;html=1;entryX=0.894;entryY=0.05;entryDx=0;entryDy=0;entryPerimeter=0;strokeColor=#666666;fontFamily=Courier New;fontSize=11;fontColor=#000000;fillColor=#f5f5f5;" edge="1" parent="1" source="895" target="882"><mxGeometry relative="1" as="geometry"><Array as="points"><mxPoint x="657" y="22143"/><mxPoint x="657" y="22143"/></Array></mxGeometry></mxCell><mxCell id="895" value="&lt;font style=&quot;font-size: 11px&quot;&gt;82&lt;/font&gt;" style="ellipse;whiteSpace=wrap;html=1;aspect=fixed;fillColor=#f5f5f5;strokeColor=#666666;sketch=1;fontStyle=1;fontColor=#333333;fontSize=11;" vertex="1" parent="1"><mxGeometry x="656" y="22107.5" width="28" height="28" as="geometry"/></mxCell><mxCell id="900" value="queue: [&amp;nbsp; &amp;nbsp; ,&amp;nbsp; &amp;nbsp;,&amp;nbsp; &amp;nbsp;,&amp;nbsp; &amp;nbsp;]" style="text;html=1;strokeColor=none;fillColor=none;align=left;verticalAlign=middle;whiteSpace=wrap;rounded=0;fontColor=#000000;fontSize=16;fontFamily=Courier New;" vertex="1" parent="1"><mxGeometry x="304.5" y="21777.5" width="276.5" height="20" as="geometry"/></mxCell><mxCell id="901" value="queue: [&amp;nbsp; &amp;nbsp; ,&amp;nbsp; &amp;nbsp;,&amp;nbsp; &amp;nbsp;]" style="text;html=1;strokeColor=none;fillColor=none;align=left;verticalAlign=middle;whiteSpace=wrap;rounded=0;fontColor=#000000;fontSize=16;fontFamily=Courier New;" vertex="1" parent="1"><mxGeometry x="346" y="22087.5" width="276.5" height="20" as="geometry"/></mxCell></root></mxGraphModel></diagram></mxfile>